
<svg width="489px" height="644px" viewBox="0 0 489 644" version="1.1" xmlns="http://www.w3.org/2000/svg" xmlns:xlink="http://www.w3.org/1999/xlink">
    <!-- Generator: Sketch 46.2 (44496) - http://www.bohemiancoding.com/sketch -->
    <desc>Created with Sketch.</desc>
    <defs></defs>
    <g id="Logo" stroke="none" stroke-width="1" fill="none" fill-rule="evenodd">
        <g id="Inu">
            <path d="M430.867187,298.003906 C455.32873,277.195317 468.620396,261.242192 470.742187,250.144531 C474.396548,231.031032 465.056115,199.984838 466.15625,188.761719 C467.606457,173.967306 461.043494,157.246724 456.992187,145.089844 C453.204329,133.723501 452.012485,126.828069 450.453125,115.800781 C446.59801,88.5386662 437.343307,55.7906637 423.443671,39.84375 C416.418355,31.7836748 404.88635,18.787581 388.847656,0.85546875 L355.152344,6.6171875 C318.83813,47.728194 296.464432,77.5784544 288.03125,96.1679688 C283.032117,107.187708 263.033166,118.167015 263.960937,129.804688 C264.385813,135.134189 274.818105,143.799553 295.257812,155.800781 L191.195313,188.761719 L129.445313,155.800781 C90.1699559,147.116479 61.6126642,143.546166 43.7734375,145.089844 C33.2864738,145.99731 30.5989735,150.863849 21.8007813,155.800781 C17.6885885,158.108257 10.5583802,161.729351 0.41015625,166.664063 C19.2892349,234.8437 35.6355891,281.606721 49.4492187,306.953125 C63.2628484,332.299529 81.6300359,348.641977 104.550781,355.980469 L149.320312,383.378906 L191.195312,329.507812 L221.976562,355.980469 C231.636001,341.307145 239.095636,332.482926 244.355469,329.507812 C279.1354,309.835278 305.513764,310.194606 317.371094,306.953125 C325.944564,304.609364 350.646649,372.81081 383.488281,387.726562 C391.85606,391.526974 411.86667,364.376465 419.222656,364 C427.729277,363.564648 431.610788,341.56595 430.867187,298.003906 Z" id="Path-49" fill="#483121"></path>
            <path d="M424.277344,382.826172 C419.179688,395.111328 391.435547,416.153646 341.044922,445.953125 C311.291698,472.876408 292.063182,496.30284 283.359375,516.232422 C274.655568,536.162004 265.085906,578.676327 254.650391,643.775391 C216.832501,627.752155 190.058413,613.414265 174.328125,600.761719 C158.597837,588.109173 150.533384,574.424928 150.134766,559.708984 L210.009766,486.119141 C220.843847,456.546204 229.670669,434.625631 236.490234,420.357422 C243.309799,406.089212 247.539617,400.692077 249.179688,404.166016 C289.957574,400.62509 320.579318,396.345793 341.044922,391.328125 C361.510525,386.310457 389.254666,376.279858 424.277344,361.236328 C429.375,363.344401 429.375,370.541016 424.277344,382.826172 Z" id="Path-55" fill="#331A0E"></path>
            <polygon id="Path-58" fill="#1F2226" points="308.070312 336.925781 330.083984 328.480469 358.732422 361.869141 347.513672 395.923828 286.474609 406.589844 273.142578 363.9375 295.173828 332.423828"></polygon>
            <path d="M191.322266,327.017578 L260.796875,316.732422 C251.959534,347.159022 250.436748,367.565272 256.228516,377.951172 C259.929278,384.587444 267.081746,390.236041 279.351562,393.345703 C283.973357,394.517051 292.551482,395.452598 305.085937,396.152344 L325.953125,396.152344 L330.964844,406.853516 C307.68706,415.811686 290.482633,420.145671 279.351562,419.855469 C268.220492,419.565267 257.881299,414.513184 248.333984,404.699219 L235.486328,423.833984 C257.269437,427.840925 273.323473,431.326602 283.648437,434.291016 C293.973402,437.255429 305.615329,441.721575 318.574219,447.689453 C303.510306,478.784219 290.436087,496.671589 279.351562,501.351563 C268.267038,506.031536 244.38748,501.441041 207.712891,487.580078 L228.025391,517.912109 C231.89721,535.349205 231.89721,546.041263 228.025391,549.988281 C224.153571,553.9353 209.572191,558.107826 184.28125,562.505859 L144.548828,562.505859 C110.203628,525.718843 91.2055806,497.32301 87.5546875,477.318359 C83.9037944,457.313709 91.6746277,424.191313 110.867187,377.951172 L191.322266,327.017578 Z" id="Path-54" fill="#B77943"></path>
            <path d="M191.539062,187.707031 C213.749248,177.248564 230.813701,169.960804 242.732422,165.84375 C254.651143,161.726696 271.715596,157.225394 293.925781,152.339844 L318.804687,129.726562 C405.54512,138.158048 453.246943,145.695808 461.910156,152.339844 C466.592407,155.930779 471.843275,185.29054 473.714844,187.707031 C478.590358,194.002091 476.975611,232.144708 456.644531,241.976562 C450.555476,244.921153 434.84584,242.044851 409.515625,233.347656 L431.042969,296.707031 C418.589709,298.505621 409.673043,303.234788 404.292969,310.894531 C398.912895,318.554275 392.742322,337.483962 385.78125,367.683594 C382.645244,377.15409 379.544984,383.77909 376.480469,387.558594 C373.415953,391.338097 368.362568,394.769087 361.320312,397.851562 L343.929687,387.558594 C350.945312,378.226997 354.453125,369.543403 354.453125,361.507813 C354.453125,356.318835 351.237961,355.927039 348.3125,350.833984 C347.242584,348.971324 343.97761,344.608693 338.517578,337.746094 C331.830512,333.584635 326.700955,331.503906 323.128906,331.503906 C319.556858,331.503906 314.075087,333.584635 306.683594,337.746094 C298.174059,340.171425 292.136299,343.075071 288.570312,346.457031 C285.004326,349.838992 282.690524,354.855919 281.628906,361.507813 C283.997564,374.167892 286.311366,382.851485 288.570312,387.558594 C290.829259,392.265702 294.329259,395.696692 299.070312,397.851562 C284.59452,397.497346 274.581499,395.535107 269.03125,391.964844 C263.481001,388.394581 257.861209,380.300831 252.171875,367.683594 L262.550781,289.710938 C261.924479,267.085938 258.464844,253.209635 252.171875,248.082031 C245.878906,242.954427 245.878906,247.967448 252.171875,263.121094 C248.697008,270.195378 245.550523,274.087305 242.732422,274.796875 C240.650783,275.321011 235.436438,267.406438 222.996094,267.15625 C220.061914,267.097241 214.330143,269.644116 205.800781,274.796875 C194.19047,281.605202 187.515991,286.576556 185.777344,289.710938 C184.038696,292.845319 184.038696,299.906517 185.777344,310.894531 C176.095766,303.275314 173.482485,294.337814 177.9375,284.082031 C181.045258,276.927737 187.682675,268.924659 197.849752,260.072798 C200.788133,257.514527 209.170247,255.823594 222.996094,255 L177.9375,248.082031 C162.87843,249.112335 153.502128,253.109258 149.808594,260.072798 C146.115059,267.036339 144.385892,283.976916 144.621094,310.894531 L104.976563,361.507812 C81.433292,347.731107 65.2692295,335.906889 56.484375,326.035156 C47.6995205,316.163424 38.1422288,299.083997 27.8125,274.796875 L118.039063,274.796875 L144.621094,187.707031 C166.180506,178.043059 179.899256,173.639413 185.777344,174.496094 C191.655431,175.352774 193.576004,179.75642 191.539062,187.707031 Z" id="Path-48" fill="#A56630"></path>
            <path d="M334.267578,270.957031 C337.769238,255.619885 342.01468,246.897229 347.003906,244.789063 C349.705312,243.647601 356.862183,239.784552 362.333984,241.365234 C365.423364,242.257688 370.027531,245.933469 376.146484,252.392578 C374.907247,261.356975 373.388367,267.545126 371.589844,270.957031 C369.79132,274.368936 366.706034,276.91516 362.333984,278.595703 C353.760238,278.136038 347.545394,277.381481 343.689453,276.332031 C339.833512,275.282582 336.692887,273.490915 334.267578,270.957031 Z" id="Path-50" stroke="#979797" fill="#1F2226"></path>
            <path d="M357.498047,247.164062 L357.498047,257.650391 C354.933377,259.323568 353.056424,260.160156 351.867188,260.160156 C350.677951,260.160156 347.004123,259.323568 340.845703,257.650391 C345.882178,255.610347 349.556006,253.862625 351.867188,252.407227 C354.178369,250.951828 356.055322,249.204106 357.498047,247.164062 Z" id="Path-51" fill="#FAF5E5"></path>
            <path d="M234.765625,303.681641 C232.151531,297.57538 229.97575,294.011578 228.238281,292.990234 C221.550183,289.058742 214.704246,292.442087 212.179688,292.990234 C209.56361,293.558252 204.90129,297.139176 201.394531,303.681641 C200.597182,305.169233 199.88299,307.739546 199.251953,311.392578 C201.298882,317.071683 203.438205,320.909573 205.669922,322.90625 C207.901639,324.902927 212.395129,325.945896 219.150391,326.035156 C225.079382,324.260216 229.008419,321.991987 230.9375,319.230469 C232.866581,316.468951 234.142623,311.286008 234.765625,303.681641 Z" id="Path-53" fill="#1F2226"></path>
            <path d="M213.705078,298.757812 C217.002078,302.856019 220.185347,304.765524 223.254883,304.486328 C226.324419,304.207132 230.419146,302.297627 235.539062,298.757812 C235.934067,303.296909 235.934067,306.672234 235.539062,308.883789 C235.144058,311.095344 233.938329,314.47067 231.921875,319.009766 L245.134766,304.486328 C242.507048,299.518173 239.30848,296.098251 235.539062,294.226562 C231.769645,292.354874 225.921337,291.282608 217.994141,291.009766 L213.705078,298.757812 Z" id="Path-52" fill="#FAF5E5"></path>
            <path d="M437.308594,292.066406 L430.787109,295.1875 C430.210173,324.11638 428.63335,344.076016 426.056641,355.066406 C422.191577,371.551992 405.322237,416.975434 409.056641,396.066406 C409.45357,393.843989 389.46704,405.811646 386.210938,406.62793 C373.999219,409.689328 356.698149,421.085319 314.017578,463.152344 C302.472332,474.531623 287.875978,493.877327 270.228516,521.189453 L250.931641,637.488281 C285.515487,641.989986 311.419132,639.146887 328.642578,628.958984 C345.866024,618.771081 387.833472,578.085535 454.544922,506.902344 L474.546875,499.546875 C484.645639,465.973932 489.254363,443.952448 488.373047,433.482422 C488.127846,430.569437 461.856902,429.998371 461.802734,427.470703 C461.456527,411.315392 464.821762,394.14547 471.898437,375.960938 L437.308594,292.066406 Z" id="Path-56" fill="#A57342"></path>
            <path d="M235.925781,294.875977 C236.156428,300.913396 236.156428,305.320623 235.925781,308.097656 C235.695135,310.87469 235.177231,312.70314 234.37207,313.583008 L232.867188,318.162109 L245.763672,304.674805 C243.048331,300.939505 240.898917,298.283255 239.31543,296.706055 C237.731942,295.128855 236.602059,294.518829 235.925781,294.875977 Z" id="Path-57" fill="#BAB8B0"></path>
            <path d="M329.777344,366.466797 C332.049913,370.820964 334.514106,372.998047 337.169922,372.998047 C339.825738,372.998047 344.162977,370.820964 350.181641,366.466797 C343.641276,356.828776 339.304036,352.009766 337.169922,352.009766 C335.035807,352.009766 332.571615,356.828776 329.777344,366.466797 Z" id="Path-59" fill="#161718"></path>
            <path d="M312.867188,377.013672 L296.695312,364.884766 L284.796875,374.136719 C290.123124,379.764154 294.08927,382.71142 296.695312,382.978516 C299.301355,383.245611 304.69198,381.25733 312.867188,377.013672 Z" id="Path-60" fill="#161718"></path>
        </g>
    </g>
</svg>