
<svg width="698px" height="727px" viewBox="0 0 698 727" version="1.1" xmlns="http://www.w3.org/2000/svg" xmlns:xlink="http://www.w3.org/1999/xlink">
    <!-- Generator: Sketch 46.2 (44496) - http://www.bohemiancoding.com/sketch -->
    <desc>Created with Sketch.</desc>
    <defs>
        <rect id="path-1" x="0" y="570" width="698" height="157"></rect>
    </defs>
    <g id="Logo" stroke="none" stroke-width="1" fill="none" fill-rule="evenodd">
        <g id="Lena" transform="translate(104.000000, 0.000000)">
            <path d="M369.178808,194.714649 C354.200045,185.949992 343.127223,181.567664 335.960343,181.567664 C328.793463,181.567664 324.400095,185.949992 322.780239,194.714649 L304.924273,229.591318 C299.088222,231.267666 294.756089,232.10584 291.927874,232.10584 C289.099658,232.10584 284.788753,231.267666 278.995157,229.591318 L286.620071,187.254387 C285.546864,180.936971 284.216035,176.172458 282.627585,172.96085 C281.039135,169.749241 278.665688,167.024262 275.507243,164.785911 C276.508768,153.975586 276.508768,147.591724 275.507243,145.634325 C274.505719,143.676927 269.255068,139.798818 259.755293,134 C266.893129,145.407259 270.737019,153.482815 271.286965,158.226668 C271.83691,162.970522 269.49857,167.881916 264.271946,172.96085 L268.722466,183.05292 L256.279625,191.549025 L256.279625,203.413537 L252.622704,207.469219 L246.592335,245.456705 C245.961495,268.350125 245.961495,284.29005 246.592335,293.276479 C247.223175,302.262908 249.233298,314.957557 252.622704,331.360425 L252.622704,350.698353 L259.755293,367 L278.995157,367 L299.016374,334.405474 L369.178808,194.714649 Z" id="Path-76" fill="#E6B9B9"></path>
            <path d="M287.745238,232.892132 L315.85194,232.892132 L329.238411,190.521347 L302.182107,28 C277.230092,30.0461923 260.479091,32.4521964 251.929101,35.2180125 C245.975371,37.1439709 242.870617,40.3252328 235.889765,44.3106059 C233.860326,45.4692137 230.384241,48.8468172 225.461509,54.4434165 C218.265119,67.9031328 211.976572,77.5322593 206.595868,83.3307959 C203.948822,86.1833958 199.149645,90.6649575 192.198336,96.7754809 C187.4125,100.982454 177.938476,109.030217 163.776263,120.918771 L149.09023,134.638689 C151.096073,161.943682 151.096073,180.571234 149.09023,190.521347 C147.622003,197.804582 118.985244,193.480213 114.483273,202.7981 C113.677638,204.465551 121.348462,231.500283 120.218935,232.892132 C119.69471,233.538104 128.049112,234.660653 142.125845,232.892132 C146.844069,232.29936 155.240741,230.543766 167.31586,227.625348 L206.595868,175.896988 C214.182399,171.432648 219.260818,167.5499 221.831126,164.248745 C224.401434,160.94759 226.99255,154.980028 229.604475,146.34606 L244.068214,134.638689 L229.604475,185.04871 C230.941541,216.53041 234.316657,234.94116 239.729825,240.280959 C240.699138,241.237134 248.443645,270.778025 244.068214,284.567933 C243.491609,286.385202 239.211439,283.917527 235.889765,277.954341 C232.994503,272.756665 240.389513,250.651926 235.889765,232.892132 C231.922466,217.233829 215.948228,205.388464 214.554467,205.32966 C212.307399,205.234856 195.3834,266.235594 197.144727,277.954341 C197.860797,282.718613 214.706231,292.360286 214.554467,293.266338 C213.569839,299.144721 210.672508,314.87748 214.554467,318.978318 C218.148383,322.774873 224.317514,326.266778 225.461509,325.58315 C227.890902,324.131393 239.066562,338.508119 246.923832,341.687902 C249.669965,342.799244 249.605348,349.227588 251.929101,343.939151 C261.778396,321.523958 270.469909,226.832679 271.390782,227.625348 C281.067748,235.955077 286.519234,237.710671 287.745238,232.892132 Z" id="Path-79" fill="#342521"></path>
            <path d="M319.987535,335.7255 C325.30341,339.599763 329.090957,342.191682 331.350177,343.501255 C333.609397,344.810829 337.396945,346.609869 342.712819,348.898376 C347.13119,349.20372 350.318292,348.820976 352.274125,347.750146 C354.229959,346.679315 358.028858,343.23718 363.670823,337.423742 L393.87633,329.736734 C400.120339,320.125786 403.640707,313.235673 404.437433,309.066396 C405.234158,304.897118 404.626416,296.545422 402.614204,284.011308 C410.640466,277.233538 415.360102,271.742557 416.773112,267.538365 C418.186121,263.334173 417.111321,257.980513 413.54871,251.477383 L464.172185,173 C447.929468,178.653881 435.629872,182.382708 427.273399,184.186481 C418.916926,185.990254 407.185746,187.44855 392.07986,188.56137 L397.493596,195.834226 C390.206203,197.573586 384.639619,198.344551 380.793845,198.147122 C376.948072,197.949692 372.199245,196.649168 366.547365,194.245549 C352.035466,202.769343 342.339151,209.456397 337.458418,214.306711 C332.577685,219.157026 327.566138,227.08617 322.423777,238.094144 C323.357745,249.440445 323.357745,257.919236 322.423777,263.530515 C321.489809,269.141795 319.020322,275.413967 315.015315,282.347031 L278.503311,309.066396 L319.987535,335.7255 Z" id="Path-72" fill="#B19FBF"></path>
            <path d="M340.041851,381.983138 C363.724463,388.612373 378.09913,388.612373 383.165851,381.983138 C390.765933,372.039285 377.262767,338.712487 364.813723,338.009184 C352.364678,337.305882 266.625709,377.195172 277.254312,388.495573 C287.882915,399.795974 291.297716,412.118167 303.571998,409.691021 C311.754853,408.072923 316.755691,403.907751 318.574515,397.195505 C323.397853,391.868783 327.175356,388.237555 329.907021,386.301818 C332.638687,384.366082 336.016964,382.926522 340.041851,381.983138 Z" id="Path-91" fill="#161718"></path>
            <path d="M334.09845,355 C331.921272,350.079519 329.663464,347.090221 327.325025,346.032107 C324.986585,344.973993 322.745794,343.197706 320.602649,340.703246 L320.602649,336 C327.464823,340.367181 332.502351,343.229574 335.715232,344.587181 C338.928113,345.944787 343.96564,347.33962 350.827815,348.771678 C345.190733,349.793126 341.332121,350.724128 339.251981,351.564682 C337.17184,352.405237 335.453997,353.550343 334.09845,355 Z" id="Path-74" fill="#161718"></path>
            <path d="M379.192011,346.941009 C373.95976,343.971938 369.886468,341.367389 366.972135,339.127362 C364.057802,336.887336 359.774773,333.595297 354.123048,329.251246 C351.167656,322.672633 350.200213,318.004516 351.220719,315.246897 C352.241225,312.489277 355.787273,310.189465 361.858863,308.347461 L391.11469,284 L398.324503,288.561166 L395.180935,327.378872 L392.442748,334.612347 C395.507776,338.766747 395.951706,342.085157 393.774536,344.567577 C392.144321,346.426357 388.280284,346.589362 383.350275,346.941009 C382.247563,347.019664 380.861475,347.019664 379.192011,346.941009 Z" id="Path-71" fill="#E6B9B9"></path>
            <path d="M285.657026,392 C293.069549,391.103717 299.179783,388.432076 303.98773,383.985077 C308.795677,379.538079 311.670293,376.757331 312.611579,375.642836 C316.36213,374.60297 319.314713,373.823116 321.469328,373.303273 C323.623943,372.783431 326.775503,371.592415 330.924009,369.730224 C327.0389,369.154339 324.394529,368.438557 322.990897,367.582879 C321.587265,366.727201 320.544866,365.472112 319.863701,363.817612 C321.11802,359.894936 321.653229,356.544126 321.469328,353.765183 C321.285427,350.98624 320.28526,347.311041 318.468828,342.739585 C318.114736,340.315466 318.114736,338.705598 318.468828,337.909981 C318.82292,337.114364 319.823086,336.476934 321.469328,335.997691 L328.193956,335.997691 C333.011704,340.641079 336.800399,343.578529 339.560041,344.810042 C342.319682,346.041555 347.334322,347.032665 354.60396,347.783373 L357.362033,344.810042 C356.985127,341.272969 356.53763,338.335518 356.019543,335.997691 C355.501456,333.659864 354.245462,328.910443 352.251559,321.749428 C352.422402,317.901389 353.206536,315.223524 354.60396,313.715833 C356.001385,312.208142 359.458315,310.358826 364.974751,308.167885 L385.50436,311.133527 L391.847682,305.533956 L391.847682,287.245829 L387.583878,279.267153 C388.571962,277.196894 387.878789,276.324776 385.50436,276.650797 C385.128758,276.702369 382.627732,273.190463 378.001282,266.115079 L376.256777,276.650797 L376.256777,281.871426 L364.974751,281.871426 L361.842682,266.115079 L364.974751,235 C354.052487,236.695131 347.510999,238.546278 345.350287,240.55344 C343.189575,242.560601 340.350287,248.741219 336.832424,259.095294 C336.614674,265.443869 336.614674,269.68071 336.832424,271.805817 C337.050174,273.930923 337.69015,275.939871 338.752354,277.832661 L328.193956,300.93062 C321.493413,305.419453 316.299287,308.273792 312.611579,309.493637 C308.923871,310.713482 303.836543,311.260112 297.349596,311.133527 C288.748973,311.204446 283.441958,312.454409 281.428551,314.883417 C279.415143,317.312425 284.722158,324.350517 297.349596,335.997691 L269.86755,365.951776 L281.428551,365.951776 L278.05649,388.123796 L285.657026,392 Z" id="Path-61" fill="#FAF5E5"></path>
            <path d="M377.81457,258 L395.086093,262.237661 L386.450331,272 C384.213729,269.571025 382.6416,267.620808 381.733945,266.149348 C380.826289,264.677888 379.519831,261.961439 377.81457,258 Z" id="Path-65" fill="#D8D8D8"></path>
            <path d="M390.410445,332.887725 C393.760168,330.836695 395.945396,329.112503 396.966128,327.71515 C397.986861,326.317797 400.598593,319.079414 404.801325,306 C402.200944,323.255676 399.589212,335.708742 396.966128,343.359197 C396.758157,343.965764 394.888339,345.172296 392.686082,345.696687 C390.671087,346.176488 388.335855,346.018032 387.608165,345.696687 C386.090277,345.026393 383.80491,341.982969 380.752064,336.566416 C374.924389,334.45191 371.249639,332.620071 369.727814,331.070898 C368.205988,329.521725 366.9508,327.87003 365.962249,326.115815 C365.800859,321.836235 366.533457,319.265508 368.160045,318.403636 C369.786632,317.541763 373.157315,317.938302 378.272094,319.593251 C378.955993,326.183269 379.782649,330.009151 380.752064,331.070898 C381.721478,332.132645 384.940939,332.738254 390.410445,332.887725 Z" id="Path-62" fill="#FAF5E5"></path>
            <path d="M293.523751,195.502902 C294.765212,195.502902 297.159808,195.502902 300.707539,195.502902 C304.25527,195.502902 312.671008,197.142781 325.954753,200.422538 L334.021533,184.694578 C352.382469,193.607128 366.308958,198.849781 375.801,200.422538 C385.293041,201.995296 393.110334,200.355417 399.252878,195.502902 L466.311355,174.039377 L466.311355,195.502902 C471.987008,186.896024 475.576049,179.741515 477.078477,174.039377 C478.580905,168.337239 478.580905,161.870327 477.078477,154.638643 C469.863575,136.094486 463.694045,122.597023 458.569887,114.146254 C446.349708,93.9927187 429.516782,75.406167 417.966928,64.8536452 C399.152457,47.6638078 370.252608,34.3792593 331.267381,25 L300.707539,27.3515379 C300.733785,45.4139593 296.296811,62.0395144 287.396617,77.2282032 C278.496424,92.416892 260.059582,109.956448 232.086093,129.846871 L287.396617,184.694578 L293.523751,195.502902 Z" id="Path-78" fill="#161718"></path>
            <path d="M259.072848,367.364197 C263.872623,367.491811 267.208744,367.491811 269.08121,367.364197 C270.953677,367.236583 274.289797,366.781851 279.089573,366 L276.28968,388.33379 L295.415141,403.429879 L297.089935,410.58643 C302.870549,413.29409 307.306875,414.917089 310.398914,415.455429 C313.490953,415.993768 318.376585,415.993768 325.055809,415.455429 L323.714016,410.58643 C325.175698,411.242383 326.190613,411.737325 326.758761,412.071255 C327.32691,412.405186 327.814575,412.79339 328.221758,413.235867 C330.044362,419.868217 331.210678,424.873928 331.720706,428.253 C332.230733,431.632071 332.230733,434.35352 331.720706,436.417346 C330.058421,438.541549 328.404439,439.742715 326.758761,440.020843 C325.113084,440.298972 319.659801,440.298972 310.398914,440.020843 L306.740812,445.774815 C314.425543,456.472713 320.083278,464.537631 323.714016,469.969572 C327.344753,475.401512 333.41384,484.881073 341.921278,498.408253 C343.149982,505.004103 344.516669,509.697642 346.02134,512.488871 C347.52601,515.280099 358.511744,533.500828 378.978541,567.151058 L377.116435,575.932801 C388.73997,595.756825 396.119837,609.964651 399.256035,618.556279 C402.392233,627.147907 355.664504,627.147907 259.072848,618.556279 L259.072848,367.364197 Z" id="Path-89" fill="#A3B6CD"></path>
            <path d="M406.320224,299 C408.932263,292.077408 411.598953,287.349714 414.320294,284.816916 C417.041635,282.284118 422.94111,278.969948 432.018718,274.874406 C440.086696,267.389596 445.826879,261.400648 449.239269,256.90756 C452.651658,252.414472 457.212274,244.840374 462.921116,234.185266 C466.204206,221.051627 468.030331,211.013812 468.399491,204.071819 C468.768651,197.129827 468.009365,187.105887 466.121634,174 C456.528684,184.578006 448.902335,191.015734 443.242586,193.313182 C437.582838,195.610631 427.942074,196.182103 414.320294,195.027597 C410.961909,203.69874 407.551454,209.647887 404.088929,212.875037 C400.626405,216.102187 392.228108,221.331609 378.89404,228.563301 L404.088929,235.999917 C397.142398,236.928128 392.72882,237.714494 390.848195,238.359017 C388.96757,239.00354 387.221091,240.328331 385.608756,242.333392 C384.219394,244.819926 383.670862,246.549312 383.96316,247.52155 C384.255459,248.493789 385.470153,248.980178 387.607242,248.98072 L404.088929,252.99234 C406.136564,252.99234 407.658811,252.99234 408.655671,252.99234 C409.652532,252.99234 411.540739,252.99234 414.320294,252.99234 C415.070527,260.284279 415.070527,265.600242 414.320294,268.940231 C413.570062,272.28022 410.159607,277.572448 404.088929,284.816916 C403.795312,289.027039 403.795312,291.759878 404.088929,293.015433 C404.382547,294.270988 405.126312,296.265843 406.320224,299 Z" id="Path-63" fill="#FAF5E5"></path>
            <path d="M199.701987,312.510513 L199.701987,319.287472 L116.60378,300.314178 C88.2976515,312.986054 69.1344537,326.042521 59.1141866,339.483578 C49.0939195,352.924634 38.0231556,381.519713 25.9018948,425.268815 L32.2788202,619 L7.62218598,619 L2.29572076,477.373057 C-0.765240254,447.909052 -0.765240254,425.272438 2.29572076,409.463214 C5.35668178,393.653991 14.2560084,370.327446 28.9937006,339.483578 C42.9052863,319.211601 52.9454483,306.155134 59.1141866,300.314178 C65.2829249,294.473221 75.2699966,288.56662 89.0754015,282.594374 C89.3159163,279.401642 89.8982895,277.198536 90.822521,275.985058 C93.609232,272.326222 98.7080095,269.946092 100.719217,267.297187 C103.730971,263.330492 107.505657,258.346111 112.043275,252.344044 C116.713912,251.885319 120.013418,251.885319 121.941795,252.344044 C123.870172,252.80277 127.169679,254.372556 131.840315,257.053401 L199.701987,312.510513 Z" id="Path-87" fill="#A2C499"></path>
            <path d="M165.717639,226.115279 C181.479177,203.192076 194.17569,186.139297 203.807177,174.956941 C210.779717,166.861678 222.293045,153.428145 231.853103,144.490908 C234.283559,142.218791 237.035045,140.388488 240.10756,139 L249.357616,284.474165 L214.102733,316 C208.14921,315.336279 204.01265,314.42767 201.693053,313.274172 C195.354754,310.122241 191.087318,304.502059 186.819937,301.280529 C180.209986,296.290547 169.279503,286.079959 154.028489,270.648766 L128.456954,252.350828 L137.901747,230.66196 L165.717639,226.115279 Z" id="Path-80" fill="#FAF5E5"></path>
            <path d="M383.211921,261.714432 L387.473387,260 L394.006623,262.925404 L394.006623,266.049731 C391.176561,267.074922 389.377444,267.986142 388.609272,268.783389 C387.8411,269.580636 387.462471,270.65284 387.473387,272 L383.211921,268.783389 C383.211921,267.061209 383.211921,265.735737 383.211921,264.806973 C383.211921,263.878208 383.211921,262.847361 383.211921,261.714432 Z" id="Path-64" fill="#FAF5E5"></path>
            <path d="M230.70156,205.627017 C225.386454,200.575795 222.993303,195.868874 223.522107,191.506252 C224.050911,187.143629 228.634893,173.776236 237.274055,151.404071 C238.10196,146.967532 239.747767,143.978299 242.211477,142.43637 C244.675187,140.894442 251.233644,138.748985 261.886846,136 C268.083993,147.162109 271.433414,154.591461 271.935108,158.288054 C272.436802,161.984648 270.872748,167.514032 267.242946,174.876205 L261.886846,169.579816 C252.347356,168.468349 246.700577,168.468349 244.946507,169.579816 C243.192438,170.691283 240.634953,175.889918 237.274055,185.175721 L244.946507,191.506252 C246.816404,198.821096 248.323065,203.528018 249.466491,205.627017 C250.609917,207.726017 252.116578,208.550683 253.986474,208.101018 L250.654396,227 C243.291021,224.406148 238.830907,222.275391 237.274055,220.60773 C235.717203,218.940068 233.526371,213.946497 230.70156,205.627017 Z" id="Path-77" fill="#B19FBF"></path>
            <path d="M19.5239258,433 C20.9074537,428.210573 21.8060866,424.562156 22.2198244,422.054748 C22.6335622,419.54734 22.6335622,417.7497 22.2198244,416.661831 L16.192053,415.053455 C22.9651959,395.922908 28.1375029,382.905949 31.708974,376.002577 C35.280445,369.099206 40.452752,362.120843 47.225895,355.067489 C55.5380093,336.808834 64.1814226,323.633548 73.1561346,315.541633 C82.1308467,307.449717 94.9549091,301.269173 111.628322,297 L200.781457,319.796785 L200.781457,324.23101 L103.844629,331.123112 L19.5239258,433 Z" id="Path-86" fill="#161718"></path>
            <path d="M320.602649,396.968842 C333.267218,411.928612 342.039009,420.302385 346.918021,422.090161 C354.236538,424.771825 368.777185,427.693359 373.429661,436.329281 C378.082137,444.965203 385.882596,478.413237 385.814146,486.383271 C385.745696,494.353306 393.558727,579.805518 394.276051,581.274093 C394.754267,582.253143 395.008508,590.980473 395.038775,607.456084 C397.828536,614.298848 399.852455,617.776746 401.110532,617.889777 C415.276195,619.162479 422.532093,609.00131 426.094629,608.627946 C432.150322,607.993291 416.682812,429.175052 409.376867,422.090161 C404.506237,417.3669 399.726873,410.157826 395.038775,400.462939 C400.492377,378.20022 400.492377,364.762316 395.038775,360.149227 C390.683936,356.465561 375.960381,346.434316 346.918021,364.285481 C342.032926,367.288151 333.261135,378.182605 320.602649,396.968842 Z" id="Path-92" fill="#E6B9B9"></path>
            <path d="M376.735099,227 C385.732169,228.633085 391.833949,229.6295 395.04044,229.989244 C398.246931,230.348988 403.279777,230.348988 410.138979,229.989244 C414.804557,237.003976 418.136494,242.177946 420.13479,245.511153 C422.133087,248.844361 423.858576,252.589243 425.311258,256.745801 L425.311258,264.594739 C422.706864,264.820547 420.981375,265.257926 420.13479,265.906878 C419.288206,266.555829 417.977127,267.253536 416.201553,268 C415.069844,261.978327 413.997254,256.811236 412.983781,252.498728 C411.970308,248.18622 411.022041,245.857029 410.138979,245.511153 C407.456702,241.796644 404.952569,239.211108 402.62658,237.754544 C400.30059,236.297979 391.670097,232.713132 376.735099,227 Z" id="Path-66" fill="#1F2226"></path>
            <path d="M420.993377,278.903733 L431.788079,276 L431.788079,277.451867 C430.054055,278.291422 428.709877,278.775377 427.755546,278.903733 C426.801214,279.032089 424.547158,279.032089 420.993377,278.903733 Z" id="Path-67" fill="#1F2226"></path>
            <polygon id="Path-88" fill="#3B4435" points="34.9912681 619 261.231788 619 261.231788 465 29.1456954 465"></polygon>
            <path d="M410.198675,423 C418.550059,446.081937 425.516631,460.62685 431.098392,466.634737 C436.680152,472.642624 444.548588,474.065264 454.703698,470.902657 L489,603.332977 C473.451292,608.386423 461.326674,611.722846 452.626144,613.342246 C443.925614,614.961646 429.783124,616.514231 410.198675,618 L410.198675,423 Z" id="Path-93" fill="#FAF5E5"></path>
            <path d="M373.496689,256.157279 L389.670064,261.641176 L409.119205,269 L404.785882,262.57864 C400.12756,260.460401 396.7899,259.069151 394.772903,258.404888 C392.755905,257.740626 387.410704,256.27233 378.737297,254 L373.496689,256.157279 Z" id="Path-68" fill="#1F2226"></path>
            <path d="M386.881846,272 C386.306493,270.75635 386.306493,269.842036 386.881846,269.257057 C387.4572,268.672078 389.462518,267.268489 392.897802,265.046289 L392.897802,261 L399.403974,263.347217 C397.128591,266.487939 395.412628,268.457886 394.256084,269.257057 C393.09954,270.056228 390.641461,270.970543 386.881846,272 Z" id="Path-69" fill="#1F2226"></path>
            <path d="M354.066225,327 C359.999205,327.979212 363.928222,329.330323 365.853277,331.053333 C367.778332,332.776344 371.045783,336.758566 375.655629,343 C371.30669,339.159787 367.740723,336.127768 364.957727,333.903946 C362.174732,331.680123 358.544231,329.378808 354.066225,327 Z" id="Path-70" fill="#957A7A"></path>
            <path d="M321.682119,342 C325.495154,344.446682 328.373741,346.028152 330.317881,346.744409 C332.26202,347.460666 335.140608,348.000247 338.953642,348.363152 L333.906223,354 C330.453338,352.431214 328.003891,350.937071 326.557882,349.517572 C325.111873,348.098073 323.486619,345.592215 321.682119,342 Z" id="Path-73" fill="#FFFFFF"></path>
            <path d="M320.277171,339 C322.085911,342.822148 323.723379,345.588559 325.189575,347.299233 C326.65577,349.009908 329.375426,351.327144 333.348543,354.250941 L338.793614,349.041235 L350.827815,347.299233 C348.48046,348.282882 346.218673,349.307653 344.042456,350.373547 C341.866238,351.43944 341.003156,352.731905 341.453208,354.250941 C340.44042,358.872969 339.553889,362.017195 338.793614,363.683617 C338.03334,365.35004 337.045608,366.313955 335.830419,366.575363 C330.442638,367.875049 326.89569,368.285464 325.189575,367.806609 C323.483459,367.327754 321.845991,365.462229 320.277171,362.210033 C321.652199,358.843924 322.253803,356.190893 322.081984,354.250941 C321.910164,352.310989 320.697406,348.265154 318.443709,342.113435 L320.277171,339 Z" id="Path-75" fill="#8D719E"></path>
            <path d="M239.642384,139 C236.650591,145.3004 234.056028,150.020521 231.858694,153.160361 C229.66136,156.300201 227.721822,161.061956 226.040081,167.445626 L220.236791,194.934375 C220.078943,199.386779 220.672471,202.848261 222.017373,205.318821 C223.362276,207.78938 226.4098,211.01644 231.159945,215 C229.543653,208.927654 228.917231,204.263288 229.28068,201.006903 C229.644128,197.750517 233.09803,177.08155 239.642384,139 Z" id="Path-81" fill="#E6B9B9"></path>
            <path d="M247.198675,37.3269308 C233.036507,44.0158252 223.410728,48.8017507 218.321338,51.6847073 C209.352974,56.7649638 205.10757,61.8518117 198.272757,64.5617695 C185.619989,69.5785077 179.032205,69.5785077 178.509404,64.5617695 C173.700983,57.8859732 171.703165,52.9798516 172.515949,49.8434046 C173.328733,46.7069577 179.175325,41.1666096 190.055727,33.2223603 C191.384204,24.4883449 191.384204,19.349503 190.055727,17.8058349 C186.987663,14.2407972 177.274492,23.4664364 174.768653,22.4671801 C170.635263,20.8189041 169.884362,15.3589303 172.515949,6.08725882 L161.733069,12.1657495 L157.091722,0 C143.310001,12.2796807 133.494878,19.7687407 127.646354,22.4671801 C115.350898,28.1401567 104.064511,23.5380753 99.8031243,29.0246287 C95.8229624,34.149104 106.193569,43.8011911 105.874259,53.0733563 C105.707416,57.9181633 105.239465,65.8276426 99.8031243,76.3274741 C99.6230728,76.6752282 93.5580655,90.7475733 95.3110671,109.445713 C95.6671694,113.244028 98.5748894,118.276921 104.034227,124.544395 C118.330325,130.452792 128.345311,133.264797 134.079184,132.98041 C139.813056,132.696024 147.483903,129.006842 157.091722,121.912866 C152.753099,116.500076 150.88596,111.885494 151.490305,108.06912 C152.09465,104.252747 155.508905,99.0974646 161.733069,92.6032742 C166.799145,95.7067851 169.042139,99.2545807 168.462052,103.246661 C167.881965,107.238741 164.091855,114.337986 157.091722,124.544395 L153.541528,130.14064 C176.306895,113.013406 193.158886,99.0297351 204.097502,88.1896279 C215.036118,77.3495208 229.403176,60.3952884 247.198675,37.3269308 Z" id="Path-82" fill="#161718"></path>
            <path d="M205.176731,315.65132 C207.199209,316.669186 210.650327,317.095522 215.530086,316.930326 C218.679267,319.480129 220.991185,321.315194 222.465841,322.43552 C223.940496,323.555846 233.204111,330.514953 250.256684,343.312841 L260.602681,367.78887 C274.78837,440.090785 281.022292,479.831446 279.304448,487.010855 C278.344108,491.024417 271.053104,507.090894 266.348959,535.37151 C263.875245,550.243105 261.959819,581.119268 260.602681,628 C256.507038,600.129737 253.058372,579.520242 250.256684,566.171516 C247.454995,552.82279 244.135905,541.187111 240.299412,531.264479 C230.308398,508.160906 219.634987,493.409699 208.279181,487.010855 C196.923376,480.612012 174.993671,476.991804 142.490066,476.150232 C185.625643,462.474531 209.972317,450.335995 215.530086,439.734623 C220.997306,429.305973 217.746801,402.312485 205.77857,358.754158 C205.646422,358.273207 205.445809,357.547237 205.176731,356.576247 C197.420747,325.389555 197.420747,311.747913 205.176731,315.65132 Z" id="Path-83" fill="#6B81A0"></path>
            <path d="M101.07279,342.807438 L199.450507,327 L219.284372,433.163577 L210.44315,446.777277 C200.122725,453.207168 192.242681,457.588058 186.803019,459.919948 C181.363357,462.251837 167.354031,467.254543 144.77504,474.928066 L144.77504,483.391199 C178.932081,500.650106 202.426922,513.50511 215.259564,521.95621 C228.092206,530.407311 237.299283,539.088574 242.880795,548 C231.145358,536.292334 222.500823,529.126632 216.947191,526.502894 C213.928887,525.076937 186.011933,506.57889 157.921532,495.128472 C142.191193,488.716355 115.44251,481.982886 77.6754828,474.928066 C56.3625294,473.860925 40.7194023,470.558971 30.7461014,465.022203 C20.7728006,459.485435 16.818007,450.311367 18.8817205,437.5 C23.1760816,426.338357 27.5821232,418.474531 32.0998453,413.908521 C36.6175673,409.342511 47.1237526,402.13472 63.6184011,392.285149 L101.07279,342.807438 Z" id="Path-84" fill="#CAE7B9"></path>
            <path d="M25.9844586,424 C25.6860464,410.913237 26.2530491,401.845822 27.6854669,396.797756 C29.1178846,391.749691 34.937402,378.310002 45.1440192,356.478691 C56.6369146,337.834334 66.4898094,325.046249 74.7027034,318.114436 C82.9155974,311.182622 95.7631791,304.811144 113.245448,299 C131.05256,300.604132 143.996679,302.242313 152.077805,303.914543 C160.158931,305.586773 175.547841,309.811556 198.244537,316.588891 L200.004201,319.857915 L198.244537,319.857915 C177.229038,313.393471 161.840127,309.403501 152.077805,307.888003 C142.315483,306.372506 135.97051,306.988521 133.042887,309.736048 L125.487331,305.971717 L131.253896,303.914543 L113.245448,301.353257 C92.8786396,310.073969 79.5719975,316.83729 73.3255222,321.643221 C67.0790468,326.449151 61.1120761,335.91758 55.42461,350.048509 L38.4243034,376.304167 L35.7970277,383.711754 L102.198671,331.270882 C153.661502,326.440358 183.726497,323.881273 192.393655,323.593628 C201.060814,323.305984 203.011108,323.305984 198.244537,323.593628 L200.004201,327.267703 C143.655044,337.790953 112.757468,342.78181 107.311471,342.240274 C101.865475,341.698739 87.5009982,358.106599 64.2180405,391.463854 L35.7970277,409.706549 L25.9844586,424 Z" id="Path-85" fill="#FAF5E5"></path>
            <path d="M306.569536,410.033804 C311.30516,408.104183 314.822834,405.194443 317.122559,401.304585 C319.422284,397.414726 322.697174,392.503659 326.947231,386.571383 C331.201747,382.015412 334.286668,378.467663 336.201993,375.928138 C338.117318,373.388613 339.864038,370.5301 341.442153,367.352598 C345.133563,365.015923 348.028916,363.297187 350.128211,362.196388 C352.227507,361.095589 354.467724,360.121409 356.848862,359.273847 C364.905759,355.801335 369.658683,354.233595 371.107635,354.570627 C372.556587,354.907658 380.438162,356.749028 394.75236,360.094736 C397.884026,370.931476 399.449859,379.023158 399.449859,384.369783 C399.449859,389.716409 397.884026,394.500341 394.75236,398.721581 C398.821392,411.351096 403.233646,418.611669 407.989121,420.503302 C415.122334,423.340751 423.141197,465.51644 433.226348,468.596026 C443.311499,471.675612 451.365845,471.641826 453.114188,469.373744 C454.862531,467.105662 447.357109,439.268005 446.669042,436.874787 C445.980975,434.48157 435.954961,406.861649 434.590654,402.791615 C433.226348,398.721581 400.387689,339.571253 399.449859,340.002345 C398.512029,340.433437 392.574758,347.321524 385.553556,345.423217 C378.532354,343.524911 367.83497,349.283024 366.201421,346.660808 C365.112388,344.912664 364.567871,342.693176 364.567871,340.002345 C356.530455,347.567207 350.357567,351.886469 346.049208,352.960132 C341.740848,354.033795 337.147476,357.924885 332.26909,364.633403 C320.460192,385.760874 313.224708,397.402443 310.562639,399.558112 C307.900571,401.713781 306.569536,404.634862 306.569536,408.321355 L306.569536,410.033804 Z" id="Path-90" fill="#CCCBDF"></path>
        </g>
        <g id="Rectangle">
            <use fill="#1F2226" fill-rule="evenodd" xlink:href="#path-1"></use>
            <rect stroke="#161718" stroke-width="1" x="0.5" y="570.5" width="697" height="156"></rect>
        </g>
    </g>
</svg>