
<svg width="393px" height="561px" viewBox="0 0 393 561" version="1.1" xmlns="http://www.w3.org/2000/svg" xmlns:xlink="http://www.w3.org/1999/xlink">
    <!-- Generator: Sketch 46.2 (44496) - http://www.bohemiancoding.com/sketch -->
    <desc>Created with Sketch.</desc>
    <defs></defs>
    <g id="Logo" stroke="none" stroke-width="1" fill="none" fill-rule="evenodd">
        <g id="Lena">
            <path d="M296.347656,175.021484 C284.403646,167.212891 275.574219,163.308594 269.859375,163.308594 C264.144531,163.308594 260.641276,167.212891 259.349609,175.021484 L245.111328,206.09375 C240.457682,207.58724 237.003255,208.333984 234.748047,208.333984 C232.492839,208.333984 229.055339,207.58724 224.435547,206.09375 L230.515625,168.375 C229.659853,162.746698 228.598656,158.501906 227.332031,155.640625 C226.065407,152.779344 224.172829,150.35161 221.654297,148.357422 C222.452909,138.726304 222.452909,133.038804 221.654297,131.294922 C220.855685,129.551039 216.668836,126.095961 209.09375,120.929688 C214.785434,131.092624 217.850538,138.287286 218.289062,142.513672 C218.727587,146.740058 216.863004,151.115709 212.695312,155.640625 L216.244141,164.631836 L206.322266,172.201172 L206.322266,182.771484 L203.40625,186.384766 L198.597656,220.228516 C198.094627,240.624684 198.094627,254.825856 198.597656,262.832031 C199.100686,270.838206 200.70355,282.148102 203.40625,296.761719 L203.40625,313.990234 L209.09375,328.513672 L224.435547,328.513672 L240.400391,299.474609 L296.347656,175.021484 Z" id="Path-76" fill="#E6B9B9"></path>
            <path d="M231.96875,208.123047 L254.441406,208.123047 L265.144531,170.333984 L243.511719,25.3867188 C223.561387,27.2116481 210.168158,29.3574814 203.332031,31.8242188 C198.571738,33.5419156 196.089339,36.379175 190.507813,39.9335938 C188.885179,40.9669167 186.105882,43.9792865 182.169922,48.9707031 C176.416063,60.9749667 171.388068,69.5628573 167.085938,74.734375 C164.969497,77.2785119 161.132325,81.2754645 155.57442,86.7252326 C151.747915,90.4772885 144.172978,97.6548151 132.849609,108.257813 L121.107422,120.494141 C122.71119,144.846536 122.71119,161.459817 121.107422,170.333984 C119.933504,176.829654 97.0370424,172.972896 93.4375,181.283203 C92.7933561,182.770346 98.9265482,206.881704 98.0234375,208.123047 C97.6042938,208.699168 104.284039,209.700331 115.539062,208.123047 C119.311509,207.594374 126.02505,206.028619 135.679688,203.425781 L167.085938,157.291016 C173.151733,153.309422 177.212172,149.846532 179.267256,146.902344 C181.322341,143.958156 183.394063,138.63589 185.482422,130.935547 L197.046875,120.494141 L185.482422,165.453125 C186.55147,193.530584 189.250038,209.950506 193.578125,214.712891 C194.353137,215.565671 200.545242,241.912188 197.046875,254.210937 C196.585851,255.831699 193.16365,253.630863 190.507813,248.3125 C188.192912,243.676869 194.105577,223.962404 190.507813,208.123047 C187.335766,194.157939 174.563598,183.59346 173.449219,183.541016 C171.65258,183.456463 158.121032,237.860948 159.529297,248.3125 C160.101829,252.561592 173.570561,261.160673 173.449219,261.96875 C172.661962,267.211479 170.345407,281.242992 173.449219,284.900391 C176.322727,288.286409 181.255243,291.400721 182.169922,290.791016 C184.112338,289.496244 193.047814,302.318356 199.330078,305.154297 C201.525744,306.145465 201.474079,311.878687 203.332031,307.162109 C211.207015,287.17076 218.156296,202.718827 218.892578,203.425781 C226.629777,210.854783 230.988501,212.420539 231.96875,208.123047 Z" id="Path-79" fill="#342521"></path>
            <path d="M257.917969,300.87793 C262.186076,304.331127 265.227091,306.641348 267.041016,307.808594 C268.85494,308.975839 271.895956,310.579355 276.164062,312.619141 C279.711565,312.891299 282.270485,312.550153 283.84082,311.595703 C285.411156,310.641253 288.461286,307.573219 292.991211,302.391602 L317.243164,295.540039 C322.256469,286.973636 325.082966,280.83236 325.722656,277.116211 C326.362346,273.400062 325.87439,265.956051 324.258789,254.78418 C330.703062,248.743037 334.49245,243.848831 335.626953,240.101562 C336.761457,236.354294 335.898501,231.582484 333.038086,225.786133 L373.683594,155.837891 C360.642342,160.877292 350.767016,164.20086 344.057617,165.808594 C337.348218,167.416327 327.929273,168.716132 315.800781,169.708008 L320.147461,176.19043 C314.296424,177.740751 309.827023,178.427925 306.739258,178.251953 C303.651492,178.075981 299.838667,176.916801 295.300781,174.774414 C283.649201,182.371818 275.864045,188.332105 271.945312,192.655273 C268.02658,196.978442 264.002817,204.045825 259.874023,213.857422 C260.623905,223.970575 260.623905,231.527867 259.874023,236.529297 C259.124142,241.530727 257.141395,247.121222 253.925781,253.300781 L224.610352,277.116211 L257.917969,300.87793 Z" id="Path-72" fill="#B19FBF"></path>
            <path d="M274.445871,341.457031 C293.502418,347.369234 305.069196,347.369234 309.146205,341.457031 C315.261719,332.588728 304.396205,302.866629 294.378906,302.239397 C284.361607,301.612165 215.370536,337.186942 223.922991,347.265067 C232.475446,357.343192 235.223214,368.332589 245.099888,366.167969 C251.684338,364.724888 255.708333,361.010231 257.171875,355.023996 C261.053043,350.273424 264.092663,347.034957 266.290737,345.308594 C268.48881,343.582231 271.207188,342.298377 274.445871,341.457031 Z" id="Path-91" fill="#161718"></path>
            <path d="M267.999023,317.738281 C266.29143,313.421732 264.520597,310.799336 262.686523,309.871094 C260.85245,308.942851 259.094963,307.384583 257.414062,305.196289 L257.414062,301.070312 C262.79617,304.901472 266.747179,307.41254 269.26709,308.603516 C271.787001,309.794492 275.73801,311.018124 281.120117,312.274414 C276.698869,313.170491 273.672501,313.987223 272.041016,314.724609 C270.40953,315.461996 269.062199,316.466553 267.999023,317.738281 Z" id="Path-74" fill="#161718"></path>
            <path d="M304.933594,310.132812 C300.824531,307.494066 297.625638,305.179288 295.336914,303.188477 C293.04819,301.197665 289.684583,298.271884 285.246094,294.411133 C282.925125,288.564426 282.165359,284.415663 282.966797,281.964844 C283.768234,279.514024 286.553065,277.470079 291.321289,275.833008 L314.296875,254.194336 L319.958984,258.248047 L317.490234,292.74707 L315.339844,299.175781 C317.746914,302.867981 318.095547,305.8172 316.385742,308.023438 C315.105479,309.675418 312.070921,309.820288 308.199219,310.132812 C307.333222,310.202716 306.24468,310.202716 304.933594,310.132812 Z" id="Path-71" fill="#E6B9B9"></path>
            <path d="M229.6875,349.978516 C235.629557,349.181641 240.527669,346.806315 244.381836,342.852539 C248.236003,338.898763 250.540365,336.426432 251.294922,335.435547 C254.301455,334.511014 256.668317,333.817655 258.395508,333.355469 C260.122699,332.893283 262.649066,331.834364 265.974609,330.178711 C262.860211,329.666698 260.74042,329.030305 259.615234,328.269531 C258.490049,327.508758 257.654437,326.392872 257.108398,324.921875 C258.113891,321.434268 258.542927,318.455101 258.395508,315.984375 C258.248088,313.513649 257.44633,310.24607 255.990234,306.181641 C255.706386,304.026384 255.706386,302.595069 255.990234,301.887695 C256.274083,301.180321 257.075841,300.61359 258.395508,300.1875 L263.786133,300.1875 C267.648156,304.315883 270.685265,306.927537 272.897461,308.022461 C275.109656,309.117385 279.129513,309.99857 284.957031,310.666016 L287.167969,308.022461 C286.865832,304.877689 286.507108,302.266035 286.091797,300.1875 C285.676486,298.108965 284.66965,293.886308 283.071289,287.519531 C283.208241,284.098283 283.836822,281.717424 284.957031,280.376953 C286.077241,279.036482 288.8484,277.392277 293.270508,275.444336 L309.727539,278.081055 L314.8125,273.102539 L314.8125,256.842773 L311.394531,249.749023 C312.186603,247.90838 311.630939,247.13299 309.727539,247.422852 C309.426447,247.468704 307.421565,244.346308 303.712891,238.055664 L302.314453,247.422852 L302.314453,252.064453 L293.270508,252.064453 L290.759766,238.055664 L293.270508,210.391602 C284.514957,211.898724 279.271142,213.544557 277.539063,215.329102 C275.806983,217.113646 273.530942,222.608763 270.710938,231.814453 C270.536384,237.4589 270.536384,241.225827 270.710938,243.115234 C270.885491,245.004642 271.398512,246.790775 272.25,248.473633 L263.786133,269.009766 C258.414815,273.000736 254.251078,275.538496 251.294922,276.623047 C248.338766,277.707597 244.260641,278.1936 239.060547,278.081055 C232.166079,278.144107 227.911848,279.255435 226.297852,281.415039 C224.683855,283.574643 228.938087,289.83213 239.060547,300.1875 L217.030273,326.819336 L226.297852,326.819336 L223.594727,346.532227 L229.6875,349.978516 Z" id="Path-61" fill="#FAF5E5"></path>
            <path d="M303.419922,230.994141 L316.773438,234.916992 L310.09668,243.954102 C308.367446,241.705572 307.151951,239.900233 306.450195,238.538086 C305.748439,237.175939 304.738348,234.66129 303.419922,230.994141 Z" id="Path-65" fill="#D8D8D8"></path>
            <path d="M314.213867,297.761719 C316.903418,295.938268 318.657975,294.40539 319.477539,293.163086 C320.297103,291.920782 322.394108,285.48556 325.768555,273.857422 C323.680664,289.19843 321.583659,300.269719 319.477539,307.071289 C319.310555,307.610552 317.809246,308.683209 316.041016,309.149414 C314.423141,309.575977 312.548142,309.435103 311.963867,309.149414 C310.745129,308.553495 308.910168,305.847766 306.458984,301.032227 C301.779843,299.152344 298.829322,297.523763 297.607422,296.146484 C296.385522,294.769206 295.377709,293.300781 294.583984,291.741211 C294.454402,287.936488 295.042618,285.651006 296.348633,284.884766 C297.654648,284.118525 300.361028,284.471064 304.467773,285.942383 C305.016888,291.801181 305.680625,295.202548 306.458984,296.146484 C307.237344,297.090421 309.822305,297.628832 314.213867,297.761719 Z" id="Path-62" fill="#FAF5E5"></path>
            <path d="M235.960938,175.244141 C236.952257,175.244141 238.864366,175.244141 241.697266,175.244141 C244.530165,175.244141 251.250217,176.708333 261.857422,179.636719 L268.298828,165.59375 C282.960222,173.551467 294.080665,178.232457 301.660156,179.636719 C309.239648,181.040981 315.481835,179.576788 320.386719,175.244141 L373.933594,156.080078 L373.933594,175.244141 C378.46566,167.559347 381.331546,161.171326 382.53125,156.080078 C383.730954,150.98883 383.730954,145.214741 382.53125,138.757812 C376.770078,122.200356 371.843646,110.148924 367.751953,102.603516 C357.994016,84.6090992 344.552754,68.01379 335.330078,58.5917969 C320.306532,43.243567 297.229709,31.3822389 266.099609,23.0078125 L241.697266,25.1074219 C241.718223,41.2347527 238.175254,56.0791538 231.068359,69.640625 C223.961464,83.2020962 209.239459,98.862578 186.902344,116.62207 L231.068359,165.59375 L235.960938,175.244141 Z" id="Path-78" fill="#161718"></path>
            <path d="M209.05957,328.248047 C212.888221,328.36169 215.549353,328.36169 217.042969,328.248047 C218.536584,328.134404 221.197717,327.729456 225.026367,327.033203 L222.792969,346.921875 L238.048828,360.365234 L239.384766,366.738281 C243.995804,369.149505 247.534541,370.594817 250.000977,371.074219 C252.467412,371.55362 256.364547,371.55362 261.692383,371.074219 L260.62207,366.738281 C261.788014,367.32242 262.597585,367.763175 263.050781,368.060547 C263.503978,368.357919 263.892975,368.703622 264.217773,369.097656 C265.671615,375.003892 266.601954,379.461574 267.008789,382.470703 C267.415624,385.479832 267.415624,387.903334 267.008789,389.741211 C265.68283,391.632855 264.363494,392.702517 263.050781,392.950195 C261.738069,393.197874 257.388134,393.197874 250.000977,392.950195 L247.083008,398.074219 C253.212909,407.600903 257.72593,414.782869 260.62207,419.620117 C263.518211,424.457365 268.359357,432.899097 275.145508,444.945313 C276.125612,450.819045 277.215781,454.998732 278.416016,457.484375 C279.61625,459.970018 288.379271,476.195929 304.705078,506.162109 L303.219727,513.982422 C312.491504,531.636099 318.378223,544.288442 320.879883,551.939453 C323.381543,559.590464 286.108105,559.590464 209.05957,551.939453 L209.05957,328.248047 Z" id="Path-89" fill="#A3B6CD"></path>
            <path d="M326.165039,267.573242 C328.246808,261.402076 330.372134,257.187558 332.541016,254.929688 C334.709898,252.671817 339.411721,249.71739 346.646484,246.066406 C353.076583,239.394049 357.651453,234.055182 360.371094,230.049805 C363.090734,226.044427 366.7255,219.292474 371.275391,209.793945 C373.891981,198.085922 375.347385,189.13768 375.641602,182.949219 C375.935818,176.760758 375.330675,167.824885 373.826172,156.141602 C366.180686,165.571398 360.102561,171.310331 355.591797,173.358398 C351.081033,175.406466 343.397439,175.915906 332.541016,174.886719 C329.864416,182.616636 327.146317,187.920022 324.386719,190.796875 C321.627121,193.673728 314.933761,198.335512 304.306641,204.782227 L324.386719,211.411621 C318.850402,212.239078 315.332824,212.940087 313.833984,213.514648 C312.335145,214.08921 310.943218,215.2702 309.658203,217.057617 C308.550895,219.274245 308.113721,220.815912 308.34668,221.682617 C308.579639,222.549322 309.547738,222.982916 311.250977,222.983398 L324.386719,226.55957 C326.018663,226.55957 327.231879,226.55957 328.026367,226.55957 C328.820855,226.55957 330.325738,226.55957 332.541016,226.55957 C333.138944,233.059991 333.138944,237.798924 332.541016,240.776367 C331.943088,243.753811 329.224989,248.471584 324.386719,254.929688 C324.152709,258.682815 324.152709,261.119013 324.386719,262.238281 C324.620729,263.357549 325.213502,265.13587 326.165039,267.573242 Z" id="Path-63" fill="#FAF5E5"></path>
            <path d="M161.249023,278.952148 L161.249023,284.992188 L94.5029297,268.082031 C71.7668976,279.37598 56.374645,291.012699 48.3261719,302.992188 C40.2776987,314.971676 31.3854461,340.457353 21.6494141,379.449219 L26.7714844,552.114258 L6.96679687,552.114258 L2.68847656,425.887695 C0.229853225,399.627578 0.229853225,379.452448 2.68847656,365.362305 C5.1470999,351.272162 12.2952119,330.482122 24.1328125,302.992188 C35.3068683,284.924567 43.3713214,273.287848 48.3261719,268.082031 C53.2810223,262.876215 61.3028322,257.611892 72.3916016,252.289062 C72.5847877,249.443505 73.0525612,247.479963 73.7949219,246.398438 C76.0332623,243.137459 80.1286994,241.016142 81.7441406,238.655277 C84.1632399,235.119917 87.1951409,230.677533 90.8398437,225.328125 C94.5913898,224.919281 97.2416176,224.919281 98.7905273,225.328125 C100.339437,225.736969 102.989665,227.136058 106.741211,229.525391 L161.249023,278.952148 Z" id="Path-87" fill="#A2C499"></path>
            <path d="M133.916016,202.933594 C146.562444,182.402272 156.749619,167.128834 164.477539,157.113281 C170.072027,149.862704 179.309861,137.830869 186.980469,129.826172 C188.93057,127.791135 191.138252,126.151812 193.603516,124.908203 L201.025391,255.203125 L172.738281,283.439453 C167.961413,282.844987 164.642402,282.031185 162.78125,280.998047 C157.695652,278.174998 154.271632,273.141245 150.847656,270.255859 C145.544096,265.786548 136.773914,256.641365 124.537109,242.820312 L104.019531,226.431641 L111.597656,207.005859 L133.916016,202.933594 Z" id="Path-80" fill="#FAF5E5"></path>
            <path d="M307.932617,234.305664 L311.222656,232.672852 L316.266602,235.458984 L316.266602,238.43457 C314.081669,239.410955 312.692672,240.278794 312.099609,241.038086 C311.506547,241.797378 311.214229,242.818537 311.222656,244.101562 L307.932617,241.038086 C307.932617,239.397895 307.932617,238.135525 307.932617,237.250977 C307.932617,236.366428 307.932617,235.384657 307.932617,234.305664 Z" id="Path-64" fill="#FAF5E5"></path>
            <path d="M185.820313,183.841797 C181.629975,179.367554 179.743256,175.198283 180.160156,171.333984 C180.577056,167.469686 184.190988,155.629191 191.001953,135.8125 C191.654659,131.882728 192.952185,129.234941 194.894531,127.869141 C196.836877,126.50334 202.00745,124.602949 210.40625,122.167969 C215.291973,132.055079 217.932598,138.635808 218.328125,141.910156 C218.723652,145.184504 217.490579,150.082291 214.628906,156.603516 L210.40625,151.912109 C202.885482,150.9276 198.433659,150.9276 197.050781,151.912109 C195.667903,152.896618 193.651627,157.501436 191.001953,165.726562 L197.050781,171.333984 C198.524975,177.813286 199.712801,181.982557 200.614258,183.841797 C201.515715,185.701037 202.70354,186.431506 204.177734,186.033203 L201.550781,202.773437 C195.745624,200.47587 192.229348,198.5885 191.001953,197.111328 C189.774558,195.634156 188.047344,191.210979 185.820313,183.841797 Z" id="Path-77" fill="#B19FBF"></path>
            <path d="M16.4726562,387.730469 C17.5837485,383.446968 18.3054282,380.183947 18.6376953,377.941406 C18.9699625,375.698865 18.9699625,374.091118 18.6376953,373.118164 L13.796875,371.679688 C19.2362929,354.569975 23.3901015,342.928048 26.2583008,336.753906 C29.1265001,330.579765 33.2803086,324.338554 38.7197266,318.030273 C45.3950713,301.700351 52.3364775,289.916822 59.5439453,282.679688 C66.7514131,275.442553 77.0502412,269.914883 90.4404297,266.09668 L162.038086,286.485352 L162.038086,290.451172 L84.1894531,296.615234 L16.4726562,387.730469 Z" id="Path-86" fill="#161718"></path>
            <path d="M257.554688,355.123326 C267.672991,368.487537 274.681176,375.968192 278.579241,377.56529 C284.426339,379.960938 296.043527,382.570871 299.760603,390.285714 C303.477679,398.000558 309.709821,427.881138 309.655134,435.001116 C309.600446,442.121094 315.842634,518.459263 316.415737,519.771205 C316.797805,520.645833 317.00093,528.442336 317.025112,543.160714 C319.25398,549.273653 320.870981,552.380609 321.876116,552.481585 C333.193712,553.618545 338.990781,544.541132 341.837054,544.207589 C346.675223,543.640625 334.317522,383.894531 328.480469,377.56529 C324.5891,373.345796 320.770647,366.905618 317.025112,358.244754 C321.382244,338.356501 321.382244,326.351838 317.025112,322.230766 C313.545832,318.939987 301.782511,309.97864 278.579241,325.925861 C274.676316,328.608276 267.668131,338.340765 257.554688,355.123326 Z" id="Path-92" fill="#E6B9B9"></path>
            <path d="M303.158203,203.102539 C310.366786,204.570776 315.25562,205.466609 317.824707,205.790039 C320.393794,206.113469 324.426183,206.113469 329.921875,205.790039 C333.660003,212.096682 336.3296,216.748375 337.930664,219.745117 C339.531728,222.74186 340.914215,226.108722 342.078125,229.845703 L342.078125,236.902344 C339.991447,237.105358 338.60896,237.498587 337.930664,238.082031 C337.252368,238.665475 336.201912,239.292754 334.779297,239.963867 C333.872556,234.550041 333.013181,229.904533 332.201172,226.027344 C331.389163,222.150154 330.629397,220.056079 329.921875,219.745117 C327.772796,216.405562 325.766449,214.081018 323.902832,212.771484 C322.039215,211.461951 315.124339,208.238969 303.158203,203.102539 Z" id="Path-66" fill="#1F2226"></path>
            <path d="M338.714844,249.894531 L346.716797,246.987305 L346.716797,248.440918 C345.43139,249.281483 344.434971,249.766021 343.727539,249.894531 C343.020107,250.023041 341.349209,250.023041 338.714844,249.894531 Z" id="Path-67" fill="#1F2226"></path>
            <polygon id="Path-88" fill="#3B4435" points="28.1894531 552.365234 209.080078 552.365234 209.080078 415.699219 23.515625 415.699219"></polygon>
            <path d="M329.275519,377.960594 C335.980689,398.534503 341.57402,411.498999 346.055511,416.854083 C350.537002,422.209168 356.854422,423.477227 365.00777,420.658261 L392.543629,538.699014 C380.059863,543.203364 370.325233,546.177259 363.33974,547.620699 C356.354247,549.064139 344.999507,550.448024 329.275519,551.772353 L329.275519,377.960594 Z" id="Path-93" fill="#FAF5E5"></path>
            <path d="M300.025391,229.023438 L313.011991,234.062839 L328.628906,240.825195 L325.149414,234.924316 C321.40896,232.977771 318.728947,231.699288 317.109375,231.088867 C315.489803,230.478446 311.197811,229.129163 304.233398,227.041016 L300.025391,229.023438 Z" id="Path-68" fill="#1F2226"></path>
            <path d="M311.351562,243.839844 C310.896535,242.721177 310.896535,241.898749 311.351563,241.372559 C311.80659,240.846369 313.392527,239.583836 316.109375,237.584961 L316.109375,233.945312 L321.254883,236.056641 C319.455361,238.881729 318.098265,240.653702 317.183594,241.372559 C316.268923,242.091415 314.324912,242.913844 311.351562,243.839844 Z" id="Path-69" fill="#1F2226"></path>
            <path d="M284.676758,292.157227 C289.5549,293.035792 292.785369,294.248031 294.368164,295.793945 C295.950959,297.339859 298.637483,300.912776 302.427734,306.512695 C298.852003,303.067191 295.920037,300.346814 293.631836,298.351562 C291.343635,296.356311 288.358609,294.291533 284.676758,292.157227 Z" id="Path-70" fill="#957A7A"></path>
            <path d="M258.299805,305.875977 C261.358461,308.119565 263.667543,309.56976 265.227051,310.226562 C266.786558,310.883365 269.09564,311.378157 272.154297,311.710938 L268.105469,316.879883 C265.335709,315.441318 263.370865,314.071201 262.210938,312.769531 C261.05101,311.467861 259.747299,309.17001 258.299805,305.875977 Z" id="Path-73" fill="#FFFFFF"></path>
            <path d="M257.417585,303.831055 C258.848811,307.265783 260.144512,309.751785 261.304688,311.289062 C262.464863,312.82634 264.616882,314.908696 267.760742,317.536133 L272.069336,312.854492 L281.591797,311.289062 C279.734374,312.173007 277.944661,313.093905 276.222656,314.051758 C274.500652,315.009611 273.817709,316.171069 274.173828,317.536133 C273.372426,321.689664 272.670928,324.515185 272.069336,326.012695 C271.467744,327.510206 270.686168,328.376417 269.724609,328.611328 C265.461348,329.779276 262.654708,330.148091 261.304688,329.717773 C259.954667,329.287456 258.658966,327.611024 257.417585,324.688477 C258.505622,321.663562 258.981661,319.279448 258.845703,317.536133 C258.709745,315.792818 257.75011,312.157076 255.966797,306.628906 L257.417585,303.831055 Z" id="Path-75" fill="#8D719E"></path>
            <path d="M192.835937,125.315918 C190.4526,130.980765 188.385705,135.224743 186.635254,138.047852 C184.884802,140.87096 183.339718,145.152373 182,150.89209 L177.376953,175.60791 C177.251208,179.611178 177.724027,182.723482 178.79541,184.944824 C179.866793,187.166166 182.294528,190.067696 186.078613,193.649414 C184.791034,188.189616 184.292011,183.995768 184.581543,181.067871 C184.871075,178.139974 187.62254,159.555989 192.835937,125.315918 Z" id="Path-81" fill="#E6B9B9"></path>
            <path d="M199.758789,34.0859375 C188.36407,40.0458309 180.619279,44.3101539 176.524414,46.8789063 C169.308571,51.405482 165.892767,55.9379308 160.393555,58.3525391 C150.213283,62.8225191 144.912827,62.8225191 144.492188,58.3525391 C140.623387,52.4043162 139.015965,48.0328969 139.669922,45.2382813 C140.323879,42.4436656 145.02798,37.5071421 153.782227,30.4287109 C154.851104,22.6465876 154.851104,18.0678116 153.782227,16.6923828 C151.313698,13.5158871 143.498592,21.7360537 141.482422,20.8457031 C138.156744,19.3770673 137.552577,14.5121585 139.669922,6.25097656 L130.994141,11.6669922 L127.259766,0.827148438 C116.171151,11.7685064 108.274015,18.4413579 103.568359,20.8457031 C93.6755763,25.9004003 84.5946786,21.7998849 81.1660156,26.6884766 C77.9636229,31.2544518 86.307694,39.8545891 86.0507812,48.1162109 C85.9165416,52.4329981 85.5400335,59.4804487 81.1660156,68.8359375 C81.0211483,69.1457909 76.1413128,81.6844366 77.5517578,98.3447266 C77.8382737,101.729075 80.1777919,106.21345 84.5703125,111.797852 C96.0727894,117.062312 104.130732,119.567845 108.744141,119.314453 C113.357549,119.061061 119.529424,115.773951 127.259766,109.453125 C123.768959,104.630257 122.26668,100.518604 122.75293,97.1181641 C123.239179,93.7177246 125.986249,89.1243001 130.994141,83.3378906 C135.070247,86.1031599 136.874935,89.2642927 136.408203,92.8212891 C135.941472,96.3782854 132.891993,102.703806 127.259766,111.797852 L124.40332,116.78418 C142.720074,101.523588 156.278993,89.0639523 165.080078,79.4052734 C173.881163,69.7465946 185.440734,54.6401493 199.758789,34.0859375 Z" id="Path-82" fill="#161718"></path>
            <path d="M165.118164,281.847656 C166.728808,282.756949 169.47718,283.137809 173.363281,282.990234 C175.871199,285.268056 177.712345,286.907379 178.886719,287.908203 C180.061092,288.909027 187.438371,295.125824 201.018555,306.558594 L209.257813,328.423828 C220.554891,393.013483 225.519409,428.515111 224.151367,434.928711 C223.38658,438.514157 217.580232,452.866864 213.833984,478.130859 C211.863989,491.416139 210.338599,518.998822 209.257812,560.878906 C205.996159,535.981493 203.249739,517.57036 201.018555,505.645508 C198.78737,493.720656 196.144141,483.326125 193.088867,474.461914 C185.132308,453.82274 176.632308,440.645006 167.588867,434.928711 C158.545427,429.212416 141.081234,425.978366 115.196289,425.226563 C149.548234,413.009614 168.937232,402.165864 173.363281,392.695313 C177.717219,383.37906 175.12861,359.264898 165.597451,320.352826 C165.492213,319.923177 165.33245,319.274644 165.118164,318.407227 C158.941519,290.547139 158.941519,278.360616 165.118164,281.847656 Z" id="Path-83" fill="#6B81A0"></path>
            <path d="M82,306.685547 L161.128906,292.625977 L177.082031,387.050781 L169.970703,399.15918 C161.669596,404.878102 155.33138,408.774586 150.956055,410.848633 C146.580729,412.922679 135.3125,417.372224 117.151367,424.197266 L117.151367,431.724609 C144.625163,447.075156 163.522949,458.508749 173.844727,466.025391 C184.166504,473.542032 191.572103,481.263386 196.061523,489.189453 C186.622269,478.776333 179.669144,472.402961 175.202148,470.069336 C172.774413,468.801051 150.319754,452.348379 127.725586,442.164062 C115.073082,436.460949 93.5581079,430.472017 63.1806641,424.197266 C46.0378523,423.248121 33.4554955,420.311272 25.4335937,415.386719 C17.411692,410.462165 14.2307024,402.302497 15.890625,390.907715 C19.3447415,380.980243 22.8886868,373.98594 26.5224609,369.924805 C30.1562351,365.86367 38.6067559,359.452863 51.8740234,350.692383 L82,306.685547 Z" id="Path-84" fill="#CAE7B9"></path>
            <path d="M22.3935547,378.81543 C22.155076,367.204403 22.608201,359.159482 23.7529297,354.680664 C24.8976583,350.201847 29.5483745,338.277693 37.7050781,318.908203 C46.8897219,302.366289 54.7637453,291.02026 61.3271484,284.870117 C67.8905515,278.719974 78.1578042,273.066979 92.1289062,267.911133 C106.359609,269.334374 116.70401,270.787824 123.162109,272.271484 C129.620209,273.755144 141.918386,277.503517 160.056641,283.516602 L161.462891,286.416992 L160.056641,286.416992 C143.261928,280.681515 130.963751,277.141476 123.162109,275.796875 C115.360468,274.452274 110.28983,274.998823 107.950195,277.436523 L101.912109,274.09668 L106.520508,272.271484 L92.1289062,269.999023 C75.8526002,277.736339 65.2184856,283.73699 60.2265625,288.000977 C55.2346394,292.264963 50.4660847,300.665679 45.9208984,313.203125 L32.3349609,336.498047 L30.2353516,343.070312 L83.3007812,296.542969 C124.427734,292.257161 148.454427,289.986654 155.380859,289.731445 C162.307292,289.476237 163.865885,289.476237 160.056641,289.731445 L161.462891,292.991211 C116.43099,302.327799 91.7389323,306.755859 87.3867188,306.275391 C83.0345052,305.794922 71.555013,320.352539 52.9482422,349.948242 L30.2353516,366.133789 L22.3935547,378.81543 Z" id="Path-85" fill="#FAF5E5"></path>
            <path d="M246.260307,367.252762 C250.058744,365.531752 252.880266,362.936585 254.724872,359.467259 C256.569478,355.997934 259.196263,351.617803 262.605228,346.326866 C266.01777,342.263441 268.49218,339.09924 270.02846,336.834263 C271.564739,334.569287 272.965781,332.019808 274.231585,329.185826 C277.19246,327.101769 279.514819,325.568845 281.198661,324.587054 C282.882503,323.605262 284.679378,322.736401 286.589286,321.980469 C293.051711,318.883371 296.864025,317.485119 298.026228,317.785714 C299.18843,318.08631 305.510231,319.728609 316.991629,322.712612 C319.503534,332.37779 320.759487,339.59468 320.759487,344.363281 C320.759487,349.131882 319.503534,353.398624 316.991629,357.163504 C320.255394,368.427641 323.794457,374.903274 327.608817,376.590402 C333.330357,379.121094 339.762277,416.737165 347.851562,419.483817 C355.940848,422.230469 362.401228,422.200335 363.803571,420.177455 C365.205915,418.154576 359.185826,393.326451 358.633929,391.191964 C358.082031,389.057478 350.040179,364.423549 348.945871,360.793527 C347.851562,357.163504 321.511719,304.407924 320.759487,304.792411 C320.007254,305.176897 315.244978,311.320313 309.613281,309.627232 C303.981585,307.934152 295.401228,313.069754 294.09096,310.731027 C293.217448,309.171875 292.780692,307.192336 292.780692,304.792411 C286.333891,311.539435 281.382626,315.391741 277.926897,316.34933 C274.471168,317.30692 270.78683,320.777344 266.873884,326.760603 C257.401983,345.603981 251.598411,355.986979 249.46317,357.909598 C247.327928,359.832217 246.260307,362.4375 246.260307,365.725446 L246.260307,367.252762 Z" id="Path-90" fill="#CCCBDF"></path>
        </g>
    </g>
</svg>