
<svg width="698px" height="725px" viewBox="0 0 698 725" version="1.1" xmlns="http://www.w3.org/2000/svg" xmlns:xlink="http://www.w3.org/1999/xlink">
    <!-- Generator: Sketch 46.2 (44496) - http://www.bohemiancoding.com/sketch -->
    <desc>Created with Sketch.</desc>
    <defs>
        <rect id="path-1" x="0" y="568" width="698" height="157"></rect>
    </defs>
    <g id="Logo" stroke="none" stroke-width="1" fill="none" fill-rule="evenodd">
        <g id="Me" transform="translate(104.000000, 0.000000)">
            <path d="M79.9983562,281 C80.9605977,249.030341 83.3187157,224.675252 87.0727101,207.934732 C90.8267046,191.194212 96.1956749,181.091211 103.179621,177.62573 L107.090856,140.487088 C110.428951,126.77511 115.909679,116.994625 123.533041,111.145633 C131.156402,105.29664 145.667964,99.7381249 167.067726,94.4700862 C185.898094,90.1067131 200.043929,87.1719363 209.505231,85.6657558 C218.966532,84.1595754 232.549269,82.6801357 250.253441,81.2274368 C267.695172,78.8186372 280.089656,78.8186372 287.436893,81.2274368 C294.78413,83.6362363 306.333392,91.4862191 322.084679,104.777385 C332.225189,114.06316 338.888711,121.932654 342.075245,128.385868 C345.26178,134.839082 348.80815,147.646163 352.714357,166.807112 C356.664574,170.952112 359.258849,174.558318 360.49718,177.62573 C361.735511,180.693142 365.308888,192.364532 371.217309,212.639901 L377.960699,212.639901 C376.801925,182.852276 374.554128,161.251194 371.217309,147.836655 C368.287556,136.058587 364.238804,123.594249 356.944489,113.641972 C356.26883,112.720111 351.312416,106.329482 342.075245,94.4700862 L333.225408,97.1678542 C336.627467,84.8599389 337.805377,75.7876107 336.759137,69.9508697 C335.712897,64.1141286 331.58734,56.7421805 324.382465,47.8350253 C312.800451,35.3607213 303.498985,26.9965501 296.478069,22.7425116 C289.457153,18.4884731 275.959456,13.0384193 255.984977,6.39235016 C237.686962,2.13078339 224.601246,0 216.727829,0 C208.854412,0 202.286272,2.13078339 197.023409,6.39235016 C179.839758,8.10354967 168.657084,10.3112318 163.475388,13.0153965 C160.119807,14.7665691 153.231062,18.7848919 147.820105,24.6517807 C145.857001,26.780297 143.443148,30.5127546 140.578545,35.8491536 L123.533041,35.8491536 L107.090856,69.9508697 L105.26366,78.4367016 L91.211483,97.1678542 L91.211483,104.777385 L68.3318777,143.670351 L79.9983562,281 Z" id="Path-34" fill="#1F2226"></path>
            <polygon id="Path-43" fill="#E6B9B9" points="156.949782 403.090685 219.317347 381 287.029573 381 321.373362 403.090685 265.05746 438 168.184407 430.568835"></polygon>
            <path d="M82.2117904,212.624047 L93.8318238,212.624047 C104.603207,201.259144 113.12422,194.09209 119.394863,191.122882 C125.665506,188.153675 135.733445,186.518691 149.598678,186.217929 C159.263826,185.0281 166.21264,185.0281 170.445118,186.217929 C174.677597,187.407759 183.104404,191.66005 195.725541,198.974802 L204.073078,212.624047 C221.222363,217.914594 233.39327,220.69757 240.585797,220.972976 C247.778325,221.248383 260.504125,219.418716 278.763199,215.483977 C278.874202,205.663593 279.936313,198.758411 281.949532,194.768432 C283.96275,190.778454 287.822883,187.928286 293.52993,186.217929 L342.691477,182.284664 L371.554585,212.624047 C368.897588,195.239786 366.190325,182.675043 363.432797,174.929818 C360.675269,167.184593 357.654945,163.66194 354.371825,164.361858 C346.183276,133.456874 335.46394,112.005673 322.213818,100.008253 C313.214768,91.8599986 294.207873,80.5259248 278.763199,77.3768993 C273.899245,76.3851843 268.145809,77.3505544 261.502891,80.2730096 C219.213019,83.2468724 188.860428,86.6127464 170.445118,90.3706318 C152.029809,94.1285171 135.013057,100.428978 119.394863,109.272016 C112.199838,120.230579 107.970925,128.159133 106.708124,133.057679 C105.445322,137.956225 104.032238,151.913604 102.468871,174.929818 C97.5322948,180.64331 94.0351983,185.414455 91.9775815,189.243253 C89.9199646,193.072052 86.6647009,200.86565 82.2117904,212.624047 Z" id="Path-35" fill="#FAF5E5"></path>
            <path d="M286.179483,296.561702 C309.349739,302.533391 325.893342,305.33257 335.810294,304.95924 C345.727245,304.58591 360.720729,300.599497 380.790746,293 C381.288092,313.83392 381.288092,328.743117 380.790746,337.727593 C378.690332,375.671264 375.086803,397.876359 375.351258,399.005104 C375.608693,400.103893 367.846675,420.975898 341.558198,455.237877 C334.909688,463.902933 321.495989,478.150047 301.317104,497.97922 C300.86441,498.424068 300.177708,499.097661 299.256999,500 L304.662028,438.822624 C271.06022,452.990017 247.953737,458.461768 235.342578,455.237877 C216.425838,450.402042 179.426289,423.584822 180.018998,417.989341 C180.414138,414.25902 178.062827,410.75832 172.965066,407.487239 C184.476955,416.480984 192.634178,421.566582 197.436734,422.744032 C204.640567,424.510209 260.826485,429.953761 277.06441,422.744032 C287.889694,417.937547 300.0289,411.001176 313.482029,401.93492 C298.044012,401.956788 288.943164,400.145148 286.179483,396.5 C285.544464,395.662444 280.341995,390.924851 267.836501,388.851749 C263.970765,388.210906 256.440138,388.210906 245.244618,388.851749 L242.691142,355.957364 C253.981311,346.391789 262.363097,340.315199 267.836501,337.727593 C285.206234,329.515882 299.20552,328.83606 299.256999,326.363984 C299.332811,322.72344 294.973639,312.789346 286.179483,296.561702 Z" id="Path-42" fill="#C4AEAE"></path>
            <path d="M188.980349,325.3488 C189.6295,320.816866 190.549176,317.617232 191.739378,315.749896 C192.92958,313.88256 195.464284,311.834381 199.34349,309.605358 C210.441513,290.277556 219.019804,276.579999 225.078363,268.512687 C227.52421,265.255904 229.137539,260.968838 231.336523,258.729619 C233.501906,256.524616 236.761794,254.942297 241.116188,253.982663 C247.859284,255.426028 252.486926,257.008347 254.999112,258.729619 C257.511299,260.450891 259.952486,263.711914 262.322674,268.512687 C264.14252,277.754164 265.052443,284.935413 265.052443,290.056434 C265.052443,295.177456 264.14252,299.398312 262.322674,302.719001 C265.724845,306.355237 267.551576,309.526185 267.802866,312.231847 C267.926078,313.558479 268.757004,316.898256 267.802866,319.180166 C265.838061,323.879181 264.404597,325.3488 262.322674,325.3488 C259.229738,325.3488 237.081775,319.286878 235.611899,325.3488 C235.074674,327.56437 219.129396,329.150434 210.467385,331.593165 C205.25902,333.06195 198.905114,344.720333 199.34349,345.91665 C199.601515,346.620795 198.47403,350.923834 206.482886,351.940707 C210.703939,352.476647 214.928448,350.973265 220.505225,349.593046 C227.603871,347.836173 237.945676,354.810941 241.116188,354.994043 C245.881831,355.269266 261.284101,345.91665 262.322674,345.91665 C266.019302,345.91665 270.3808,347.270621 278.76153,345.91665 C281.197101,345.523165 285.854576,344.127305 292.733955,341.72907 C297.591085,334.892244 300.019651,329.432154 300.019651,325.3488 C300.019651,321.265446 295.567568,312.46057 286.663403,298.934173 L249.6962,236.950073 L228.271126,235 L196.732481,298.934173 L188.980349,312.231847 L188.980349,325.3488 Z" id="Path-37" fill="#E6B9B9"></path>
            <path d="M179.232576,179 C206.677109,183.148609 227.428414,185.222914 241.486493,185.222914 C255.544572,185.222914 277.89507,183.148609 308.537988,179 C318.673764,182.08675 323.662804,184.161055 323.50511,185.222914 C322.702653,190.626365 305.817777,193.441526 303.917912,195.750977 C301.458019,198.74119 292.932306,205.39331 278.340772,215.707336 C265.228403,221.235779 255.350584,224 248.707315,224 C242.064046,224 226.940515,221.235779 203.336724,215.707336 C190.139699,205.741 181.419191,197.526322 177.175199,191.063299 C174.887824,187.57994 166.009112,187.287584 166.585805,185.222914 C166.914674,184.045502 171.130264,181.971198 179.232576,179 Z" id="Path-36" fill="#E6B9B9"></path>
            <path d="M82.4102203,254 C79.0963228,271.831995 77.62537,285.694313 77.997362,295.586955 C80.2496578,355.483823 91.4610792,400.027055 100.754439,415.104218 C118.148012,443.322829 171.490821,501.695171 195.140097,512.642463 C218.789373,523.589754 260.681443,526.560497 286.013691,512.642463 C302.901856,503.363773 309.310557,478.406545 305.239794,437.77078 C255.503598,453.810034 220.317055,453.216116 199.680167,435.989023 C192.781496,430.230207 182.594872,414.345071 177.335667,410.444769 C158.996059,396.843855 154.523598,404.656665 154.080058,404.446419 C153.875441,404.349427 161.494386,401.356219 167.411463,399.911039 C170.801997,399.082938 176.561462,398.083501 184.689858,396.912725 C191.084809,392.333979 196.081579,389.363071 199.680167,388 C203.278755,386.636929 209.379169,385.404455 217.981409,384.302576 C228.732487,389.858403 236.715285,391.863597 241.929804,390.318158 C247.144323,388.772719 247.144323,376.397496 241.929804,353.192487 C216.740686,347.023543 200.903415,343.029812 194.417992,341.211295 C187.932569,339.392777 188.893562,324.184664 197.300971,295.586955 C167.92291,302.299122 147.748452,305.470901 136.777597,305.102293 C102.48004,303.949935 85.7263049,289.899646 92.7366868,277.602243 C91.6134956,274.864297 89.9170414,265.608744 87.428192,263.537739 C85.7301402,262.124768 84.0574829,258.945521 82.4102203,254 Z" id="Path-41" fill="#FAF5E5"></path>
            <path d="M68.3318777,215.888339 C112.381072,207.296113 141.263085,203 154.977915,203 C168.692745,203 190.111015,207.296113 219.232725,215.888339 C230.08497,219.640553 238.548665,221.516661 244.623808,221.516661 C250.698952,221.516661 260.114352,219.640553 272.87001,215.888339 C302.472646,209.158451 323.844393,205.793506 336.985252,205.793506 C350.12611,205.793506 365.896173,209.158451 384.295442,215.888339 L403.585153,219.59236 L403.585153,229.66826 C399.918155,232.318371 397.587997,234.663218 396.594679,236.702801 C395.601361,238.742383 394.114356,244.069495 392.133664,252.684135 C390.892798,260.723248 389.827369,266.737691 388.937379,270.727466 C388.047388,274.71724 386.500076,280.330071 384.295442,287.565957 C382.082087,291.798628 380.361319,294.469929 379.13314,295.57986 C377.904961,296.689791 374.737968,298.435661 369.632161,300.817469 C352.137309,304.27249 339.251082,306 330.973478,306 C322.695875,306 309.296174,304.27249 290.774376,300.817469 C283.643266,295.845194 278.442482,291.428024 275.172024,287.565957 C271.901566,283.70389 268.608789,278.09106 265.293694,270.727466 L255.510132,245.374202 C254.615613,243.71873 253.516298,242.371605 252.212186,241.332826 C250.908074,240.294048 248.378615,239.572292 244.623808,239.167558 C240.195815,238.568378 237.307384,238.568378 235.958515,239.167558 C234.609647,239.766738 232.840634,241.83562 230.651476,245.374202 L219.232725,270.727466 L210.031559,287.565957 C206.400154,291.621793 203.597876,294.293094 201.624726,295.57986 C199.651575,296.866627 195.548384,298.612497 189.315151,300.817469 C168.823315,304.27249 153.628181,306 143.729748,306 C133.831315,306 121.28568,304.27249 106.092843,300.817469 C101.429867,299.224113 98.2330077,297.478244 96.5022644,295.57986 C94.7715211,293.681477 92.2862873,289.194884 89.0465629,282.120083 C86.2207008,269.632618 83.9835884,260.425924 82.3352255,254.5 C80.6868626,248.574076 79.0752227,242.641676 77.5003056,236.702801 L68.3318777,223.737007 L68.3318777,215.888339 Z" id="Path-31" fill="#161718"></path>
            <path d="M88.6179039,249.823743 C89.5388438,237.182159 90.7168551,228.962377 92.1519381,225.164396 C93.587021,221.366416 97.2770527,218.717454 103.222033,217.217512 C113.49483,213.931782 121.260873,212.00249 126.520162,211.429639 C131.77945,210.856787 143.477551,210.856787 161.614463,211.429639 C174.063422,212.214649 183.072284,213.158856 188.641049,214.26226 C194.209814,215.365663 200.694038,217.491281 208.093722,220.639111 C212.588401,221.981249 215.581031,223.489677 217.071614,225.164396 C218.562196,226.839115 219.519402,229.768459 219.943231,233.95243 C219.11384,243.487088 218.156634,250.342376 217.071614,254.518295 C215.986593,258.694213 212.993962,267.040657 208.093722,279.557628 C203.532997,284.369413 199.883685,287.815769 197.145786,289.896694 C194.407887,291.97762 191.572975,293.459564 188.641049,294.342527 C182.393132,297.677323 177.688542,299.621583 174.52728,300.175309 C163.933761,302.030864 154.119856,300.175309 147.996215,300.175309 C142.114044,300.175309 130.752536,301.887412 120.844028,300.175309 C117.494633,299.596562 112.461416,297.652302 105.744377,294.342527 C102.382975,291.811246 99.8158963,289.230222 98.043142,286.599454 C96.2703876,283.968687 94.306653,278.865939 92.1519381,271.291211 L88.6179039,249.823743 Z" id="Path-27" fill="#FAF5E5"></path>
            <path d="M386.999282,248.588544 C388.732232,253.584429 386.51778,263.140168 380.355927,277.255761 C374.194074,291.371355 365.804553,298.696768 355.187366,299.232 C336.367571,300.256 322.910783,300.256 314.817,299.232 C309.90894,298.611048 304.120991,298.376891 298.251705,296.382235 C295.71195,295.519108 291.832924,293.577162 286.614629,290.556395 C284.238376,287.488919 282.46578,285.162851 281.296842,283.578191 C276.458612,277.019294 272.675218,271.092329 271.128405,267.123264 C269.021016,261.715781 267.262785,251.769576 265.853712,237.284649 C266.099961,232.669803 266.737751,229.721412 267.767081,228.439477 C272.688086,222.310823 280.683581,220.895957 286.614629,219.414356 C289.929637,218.586253 311.782084,213.69838 314.817,213.463936 C323.490547,212.793914 340.270516,212.342303 355.187366,215.862099 C358.161613,216.563906 365.171569,217.074279 370.633943,219.414356 C372.572241,220.244722 373.468793,222.380114 375.098471,223.342083 C376.924531,224.419974 378.677016,226.119105 380.355927,228.439477 C382.941461,231.367703 384.381946,234.316093 384.677383,237.284649 C384.97282,240.253206 385.746786,244.021171 386.999282,248.588544 Z" id="Path-28" fill="#FAF5E5"></path>
            <path d="M165.491266,257.247712 L193.251092,255 C193.251092,263.826704 193.251092,269.826704 193.251092,273 C193.251092,282.563094 193.251092,287.332375 193.251092,288.532506 C193.251092,290.32999 188.624454,291.145421 179.371179,290.978797 L179.371179,288.532506 L171.734316,288.532506 L171.734316,277.879413 L165.491266,277.879413 L165.491266,257.247712 Z" id="Path-29" fill="#CAE7B9"></path>
            <path d="M190.854467,320.534759 C190.994172,317.785779 191.79648,315.554131 193.261391,313.839816 C194.726302,312.125501 197.737954,309.893853 202.296348,307.144872 C204.7402,300.445778 206.626337,295.802914 207.954759,293.216281 C213.716991,281.996366 219.264135,274.81284 223.359069,269.043692 C227.177242,263.66446 230.847081,258.694373 234.932859,255.634812 C236.140508,254.730486 238.072328,253.852216 240.728319,253 C246.971375,253.71717 251.105688,254.595441 253.131256,255.634812 C256.005605,257.109715 257.522467,260.701697 258.755405,262.113066 C261.291629,265.016333 263.143504,270.977178 264.31103,279.995602 L267.989083,320.534759 C266.867788,324.431527 265.64177,326.49483 264.31103,326.724669 C254.563552,328.408203 244.929892,324.968048 240.728319,326.724669 C238.637232,327.598924 222.331852,327.657335 217.596158,330.229694 C213.110696,332.666131 208.010759,338.589566 202.296348,348 C202.852792,346.353826 202.852792,345.39498 202.296348,345.123462 C198.072355,343.062357 192.487909,342.930296 190.854467,341.490667 C188.898255,339.766566 187.995445,337.779234 188.146036,335.528671 C187.834873,333.718623 187.834873,331.952298 188.146036,330.229694 C188.457199,328.507091 189.36001,325.275446 190.854467,320.534759 Z" id="Path-40" fill="#FAF5E5"></path>
            <path d="M267.989083,257 C274.644835,272.205546 278.364025,280.490634 279.146653,281.855264 C279.929281,283.219894 279.929281,274.934806 279.146653,257 L267.989083,257 Z" id="Path-30" fill="#CAE7B9"></path>
            <path d="M95.0240175,211 C118.627668,205.43007 136.163367,202.645105 147.631113,202.645105 C159.09886,202.645105 177.864471,205.43007 203.927948,211 C199.825929,203.651646 195.589308,198.486727 191.218084,195.505245 C187.731279,193.126998 180.169435,190.844807 170.195153,186.793706 C168.50852,186.108672 162.910986,185.177437 153.402551,184 C141.005181,184.594312 132.398079,185.525547 127.581244,186.793706 C122.764409,188.061866 116.804765,190.965712 109.702314,195.505245 L95.0240175,211 Z" id="Path-32" fill="#1F2226"></path>
            <path d="M277.778115,215 C277.183548,202.896426 278.06307,195.177204 280.41668,191.842332 C282.77029,188.50746 288.009578,186.457943 296.134544,185.693782 C308.908118,183.509577 318.632163,182.10248 325.306679,181.472491 C331.981196,180.842503 337.164869,180.842503 340.857698,181.472491 C353.573493,193.312255 361.479439,200.793755 364.575539,203.916989 C367.671638,207.040224 369.286196,209.830645 369.419214,212.288254 C360.021792,207.584846 352.815907,204.794425 347.801561,203.916989 C342.787214,203.039554 334.046467,203.039554 321.57932,203.916989 L297.889243,208.402352 L277.778115,215 Z" id="Path-33" fill="#1F2226"></path>
            <path d="M202.860262,341.527893 C203.553805,339.538958 204.884562,338.723687 206.852532,339.08208 C208.820502,339.440473 215.675335,341.746446 227.417031,346 L202.860262,341.527893 Z" id="Path-38" fill="#1F2226"></path>
            <path d="M282.936681,340.413127 C280.477465,337.859259 278.15145,336.738587 275.958638,337.051112 C273.765825,337.363637 270.041621,339.346599 264.786026,343 C269.473682,341.393469 273.197886,340.393469 275.958638,340 C278.719389,339.606531 281.045404,339.74424 282.936681,340.413127 Z" id="Path-39" fill="#1F2226"></path>
            <path d="M118.625483,438 L123.566884,495.686044 L95.476468,523.236454 C87.6491321,543.002429 89.5504674,564.331389 101.180474,587.223333 C118.625483,621.56125 202.104796,616.575461 229.908804,611.054679 C248.444809,607.374158 254.708403,578.101416 248.699586,523.236454 C231.986712,522.466651 219.618256,520.809324 211.594218,518.264471 C195.365536,513.117485 179.546439,504.44732 165.125379,490.204955 C140.00889,465.399691 124.508925,447.99804 118.625483,438 Z" id="Path-44" fill="#FAF5E5"></path>
            <path d="M246.741393,521.13987 C228.287792,576.749505 209.587434,604.944588 190.640318,605.725118 C162.219644,606.895914 117.691573,603.442153 109.989978,595.37418 C102.288382,587.306208 134.836383,639.626465 230.443346,617.500323 C294.181321,602.749561 327.338488,578.369767 329.914847,544.360939 C326.595352,498.223427 325.162324,474.460355 325.615763,473.071723 C326.295922,470.988776 289.228987,514.951379 278.552555,516.872242 C271.434934,518.152818 260.831214,519.575361 246.741393,521.13987 Z" id="Path-45" fill="#C4AEAE"></path>
            <path d="M328.997818,507 L489,552.457803 L489,626 L124.640062,623.904072 C110.275172,619.472814 102.91875,612.703348 102.570795,603.595674 C102.222841,594.487999 103.119139,590.822716 105.259691,592.599823 C219.102793,591.456328 286.208039,580.878857 306.575429,560.86741 C326.94282,540.855964 334.416949,522.90016 328.997818,507 Z" id="Path-46" fill="#A2C499"></path>
            <path d="M104.672604,513 C87.0258413,545.699597 89.0759444,571.109401 110.822914,589.229414 C132.569883,607.349426 137.872885,618.939621 126.731921,624 L0,624 L0,561.863419 L104.672604,513 Z" id="Path-47" fill="#CAE7B9"></path>
        </g>
        <g id="Rectangle">
            <use fill="#1F2226" fill-rule="evenodd" xlink:href="#path-1"></use>
            <rect stroke="#161718" stroke-width="1" x="0.5" y="568.5" width="697" height="156"></rect>
        </g>
    </g>
</svg>