
<svg width="556px" height="712px" viewBox="0 0 556 712" version="1.1" xmlns="http://www.w3.org/2000/svg" xmlns:xlink="http://www.w3.org/1999/xlink">
    <!-- Generator: Sketch 46.2 (44496) - http://www.bohemiancoding.com/sketch -->
    <desc>Created with Sketch.</desc>
    <defs></defs>
    <g id="Logo" stroke="none" stroke-width="1" fill="none" fill-rule="evenodd">
        <g id="Me">
            <path d="M91.9863281,319.412109 C93.0765998,283.143372 95.7484748,255.513164 100.001953,236.521484 C104.255431,217.529805 110.338765,206.068216 118.251953,202.136719 L122.683594,160.003906 C126.465835,144.448028 132.675796,133.352325 141.313477,126.716797 C149.951157,120.081269 166.39354,113.77528 190.640625,107.798828 C211.976449,102.848696 228.004444,99.519269 238.724609,97.8105469 C249.444775,96.1018247 264.834749,94.4234393 284.894531,92.7753906 C304.656954,90.0426709 318.700574,90.0426709 327.025391,92.7753906 C335.350207,95.5081104 348.436145,104.413709 366.283203,119.492187 C377.772948,130.026655 385.323078,138.954389 388.933594,146.275391 C392.544109,153.596392 396.562338,168.125689 400.988281,189.863281 C405.464091,194.565675 408.403544,198.656821 409.806641,202.136719 C411.209737,205.616617 415.258565,218.857502 421.953125,241.859375 L429.59375,241.859375 C428.280796,208.066098 425.733921,183.560238 421.953125,168.341797 C418.633557,154.979889 414.046102,140.839425 405.78125,129.548828 C405.015692,128.503001 399.399807,121.253001 388.933594,107.798828 L378.90625,110.859375 C382.760967,96.8963688 384.095602,86.6040511 382.910156,79.9824219 C381.72471,73.3607927 377.050231,64.9975114 368.886719,54.8925781 C355.763671,40.7408083 345.224608,31.251876 337.269531,26.4257812 C329.314454,21.5996865 314.020834,15.4167438 291.388672,7.87695312 C270.656033,3.04231771 255.82921,0.625 246.908203,0.625 C237.987196,0.625 230.545139,3.04231771 224.582031,7.87695312 C205.112027,9.81826396 192.441454,12.3228213 186.570312,15.390625 C182.768258,17.3772842 174.962938,21.9359658 168.832031,28.5917969 C166.607729,31.0065426 163.872703,35.2409176 160.626953,41.2949219 L141.313477,41.2949219 L122.683594,79.9824219 L120.613281,89.609375 L104.691406,110.859375 L104.691406,119.492188 L78.7675781,163.615234 L91.9863281,319.412109 Z" id="Path-34" fill="#1F2226"></path>
            <polygon id="Path-43" fill="#E6B9B9" points="179.035156 457.484375 249.847656 432.59375 326.728516 432.59375 365.722656 457.484375 301.78125 496.818359 191.791016 488.445312"></polygon>
            <path d="M94,241.935547 L107.169922,241.935547 C119.378,229.051617 129.035552,220.926617 136.142578,217.560547 C143.249604,214.194477 154.660411,212.340961 170.375,212 C181.329293,210.651138 189.204944,210.651138 194.001953,212 C198.798963,213.348862 208.349744,218.169512 222.654297,226.46195 L232.115234,241.935547 C251.551904,247.933226 265.346175,251.088174 273.498047,251.400391 C281.649919,251.712608 296.073096,249.638389 316.767578,245.177734 C316.893387,234.044762 318.097163,226.216637 320.378906,221.693359 C322.660649,217.170082 327.035649,213.938962 333.503906,212 L389.222656,207.541016 L421.935547,241.935547 C418.924157,222.227714 415.855798,207.983573 412.730469,199.203125 C409.605139,190.422677 406.181962,186.429187 402.460938,187.222656 C393.180194,152.186927 381.031106,127.868567 366.013672,114.267578 C355.814323,105.030232 334.272275,92.1812509 316.767578,88.6113281 C311.254866,87.4870609 304.734033,88.581462 297.205078,91.8945312 C249.274552,95.2658791 214.87351,99.0816343 194.001953,103.341797 C173.130396,107.601959 153.843938,114.744538 136.142578,124.769531 C127.987875,137.192811 123.194906,146.181092 121.763672,151.734375 C120.332437,157.287658 118.730875,173.110575 116.958984,199.203125 C111.363964,205.680279 107.400423,211.089133 105.068359,215.429688 C102.736296,219.770242 99.0468429,228.605528 94,241.935547 Z" id="Path-35" fill="#FAF5E5"></path>
            <path d="M326.255859,336.826172 C352.520858,343.581848 371.274113,346.748514 382.515625,346.326172 C393.757137,345.90383 410.753231,341.394064 433.503906,332.796875 C434.06768,356.365954 434.06768,373.232491 433.503906,383.396484 C431.12295,426.32155 427.038114,451.441818 427.337891,452.71875 C427.629711,453.961792 418.830956,477.573956 389.03125,516.333984 C381.494729,526.136623 366.289426,542.254155 343.415341,564.68658 C342.902183,565.189829 342.123762,565.951855 341.080078,566.972656 L347.207031,497.763672 C309.117188,513.791016 282.924479,519.98112 268.628906,516.333984 C247.185547,510.863281 205.244141,480.525391 205.916016,474.195312 C206.363932,469.97526 203.698568,466.014974 197.919922,462.314453 C210.969401,472.488932 220.216146,478.242188 225.660156,479.574219 C233.826172,481.572266 297.51658,487.730469 315.923329,479.574219 C328.194495,474.136719 341.955078,466.289714 357.205078,456.033203 C339.705078,456.057943 329.388672,454.008464 326.255859,449.884766 C325.536024,448.937252 319.638686,443.577689 305.462891,441.232422 C301.080827,440.507446 292.544369,440.507446 279.853516,441.232422 L276.958984,404.019531 C289.757128,393.19815 299.25843,386.323801 305.462891,383.396484 C325.152618,374.106707 341.021723,373.337635 341.080078,370.541016 C341.166016,366.422526 336.224609,355.184245 326.255859,336.826172 Z" id="Path-42" fill="#C4AEAE"></path>
            <path d="M215.185547,369.976562 C215.922183,364.833846 216.965802,361.202987 218.316406,359.083984 C219.66701,356.964982 222.543312,354.640763 226.945312,352.111328 C239.539001,330.178657 249.273376,314.635037 256.148438,305.480469 C258.923908,301.784759 260.754663,296.919912 263.25,294.378906 C265.707209,291.876727 269.406428,290.081154 274.347656,288.992188 C281.99951,290.63008 287.250812,292.425653 290.101563,294.378906 C292.952313,296.33216 295.722495,300.03268 298.412109,305.480469 C300.477214,315.967448 301.509766,324.116536 301.509766,329.927734 C301.509766,335.738932 300.477214,340.528646 298.412109,344.296875 C302.272786,348.423177 304.345703,352.021484 304.630859,355.091797 C304.770676,356.597223 305.713585,360.387112 304.630859,362.976562 C302.401261,368.308879 300.77461,369.976562 298.412109,369.976562 C294.902344,369.976562 269.769531,363.097656 268.101562,369.976562 C267.491937,372.490732 249.397736,374.290554 239.568359,377.0625 C233.658071,378.729238 226.447857,391.958858 226.945312,393.316406 C227.238112,394.115451 225.958677,398.998424 235.046875,400.152344 C239.836793,400.760515 244.630633,399.054517 250.958984,397.488281 C259.014304,395.494629 270.749859,403.409408 274.347656,403.617188 C279.755558,403.929503 297.23357,393.316406 298.412109,393.316406 C302.606927,393.316406 307.556218,394.852856 317.066406,393.316406 C319.830216,392.86989 325.115372,391.285906 332.921875,388.564453 C338.433594,380.806207 341.189453,374.610243 341.189453,369.976562 C341.189453,365.342882 336.13737,355.351345 326.033203,340.001953 L284.083984,269.664062 L259.771484,267.451172 L223.982422,340.001953 L215.185547,355.091797 L215.185547,369.976562 Z" id="Path-37" fill="#E6B9B9"></path>
            <path d="M204.59375,204.048828 C235.780204,208.79362 259.360845,211.166016 275.335671,211.166016 C291.310498,211.166016 316.708373,208.79362 351.529297,204.048828 C363.047034,207.579165 368.716305,209.951561 368.537109,211.166016 C367.625242,217.345978 348.438199,220.565697 346.279297,223.207031 C343.48401,226.626958 333.795859,234.235031 317.214844,246.03125 C302.31467,252.354167 291.090061,255.515625 283.541016,255.515625 C275.99197,255.515625 258.806424,252.354167 231.984375,246.03125 C216.988003,234.632687 207.078498,225.237504 202.255859,217.845703 C199.656613,213.861762 189.567334,213.527393 190.222656,211.166016 C190.596364,209.819402 195.386729,207.447006 204.59375,204.048828 Z" id="Path-36" fill="#E6B9B9"></path>
            <path d="M94.7695313,289.431641 C91.0044444,309.643309 89.3332204,325.355548 89.7558594,336.568359 C92.3148068,404.458442 105.052671,454.945951 115.611328,472.035156 C135.373047,504.019531 195.978516,570.181641 222.847656,582.589844 C249.716797,594.998047 297.3125,598.365234 326.09375,582.589844 C345.28125,572.072917 352.5625,543.785156 347.9375,497.726562 C291.429688,515.90625 251.452474,515.233073 228.005859,495.707031 C220.16793,489.179704 208.59439,471.174701 202.619141,466.753906 C181.782583,451.337955 176.701193,460.193381 176.197266,459.955078 C175.96479,459.845142 184.621058,456.452492 191.34375,454.814453 C195.195907,453.875843 201.739527,452.743031 210.974609,451.416016 C218.240237,446.226238 223.917321,442.858863 228.005859,441.313891 C232.094398,439.768919 239.025388,438.371971 248.798828,437.123047 C261.013672,443.420297 270.083333,445.693083 276.007813,443.941406 C281.932292,442.189729 281.932292,428.163037 276.007813,401.861328 C247.389179,394.869141 229.395654,390.342448 222.027236,388.28125 C214.658818,386.220052 215.750651,368.982422 225.302734,336.568359 C191.924831,344.176262 169.003607,347.771314 156.539063,347.353516 C117.571871,346.047376 98.537103,330.122081 106.501953,316.183594 C105.225839,313.080271 103.298411,302.589567 100.470703,300.242188 C98.5414604,298.640655 96.6410698,295.03714 94.7695313,289.431641 Z" id="Path-41" fill="#FAF5E5"></path>
            <path d="M78.8320312,245.808594 C128.762587,236.058594 161.500868,231.183594 177.046875,231.183594 C192.592882,231.183594 216.870877,236.058594 249.880859,245.808594 C262.182075,250.066406 271.775825,252.195312 278.662109,252.195312 C285.548394,252.195312 296.22092,250.066406 310.679688,245.808594 C344.234809,238.171875 368.460069,234.353516 383.355469,234.353516 C398.250868,234.353516 416.126519,238.171875 436.982422,245.808594 L458.847656,250.011719 L458.847656,261.445312 C454.691048,264.452518 452.049772,267.113325 450.923828,269.427734 C449.797884,271.742144 448.112337,277.787066 445.867188,287.5625 C444.460643,296.684856 443.252961,303.509726 442.244141,308.037109 C441.23532,312.564493 439.481414,318.933633 436.982422,327.144531 C434.473543,331.947541 432.523023,334.978791 431.130859,336.238281 C429.738696,337.497772 426.148852,339.478892 420.361328,342.181641 C400.530599,346.102214 385.923828,348.0625 376.541016,348.0625 C367.158203,348.0625 351.969401,346.102214 330.974609,342.181641 C322.891368,336.539368 316.996186,331.526999 313.289062,327.144531 C309.581939,322.762064 305.849518,316.392923 302.091797,308.037109 L291.001953,279.267578 C289.988,277.389037 288.741906,275.860391 287.263672,274.681641 C285.785438,273.50289 282.91825,272.68388 278.662109,272.224609 C273.642899,271.544691 270.368811,271.544691 268.839844,272.224609 C267.310877,272.904527 265.305669,275.252184 262.824219,279.267578 L249.880859,308.037109 L239.451172,327.144531 C235.334909,331.746877 232.158477,334.778127 229.921875,336.238281 C227.685273,337.698435 223.034232,339.679555 215.96875,342.181641 C192.740885,346.102214 175.516927,348.0625 164.296875,348.0625 C153.076823,348.0625 138.85612,346.102214 121.634766,342.181641 C116.349199,340.373585 112.725501,338.392466 110.763672,336.238281 C108.801843,334.084097 105.984786,328.992951 102.3125,320.964844 C99.1093344,306.794735 96.5735271,296.347469 94.7050781,289.623047 C92.8366291,282.898625 91.0098062,276.166854 89.2246094,269.427734 L78.8320312,254.714844 L78.8320312,245.808594 Z" id="Path-31" fill="#161718"></path>
            <path d="M102.1875,284.703125 C103.23292,270.408034 104.57016,261.113112 106.199219,256.818359 C107.828277,252.523607 112.01708,249.528164 118.765625,247.832031 C130.426965,244.11653 139.24272,241.934889 145.212891,241.287109 C151.183061,240.639329 164.462358,240.639329 185.050781,241.287109 C199.182429,242.174798 209.408991,243.242507 215.730469,244.490234 C222.051946,245.737962 229.412623,248.141608 237.8125,251.701172 C242.914711,253.21886 246.311847,254.924589 248.003906,256.818359 C249.695966,258.71213 250.782554,262.02463 251.263672,266.755859 C250.322175,277.537641 249.235586,285.289594 248.003906,290.011719 C246.772227,294.733843 243.375091,304.171994 237.8125,318.326172 C232.635316,323.767334 228.492738,327.66447 225.384766,330.017578 C222.276793,332.370687 219.058694,334.046468 215.730469,335.044922 C208.63804,338.815905 203.297545,341.014473 199.708984,341.640625 C187.683572,343.738886 176.543151,341.640625 169.591797,341.640625 C162.91455,341.640625 150.017342,343.57667 138.769531,341.640625 C134.967408,340.986179 129.253866,338.787612 121.628906,335.044922 C117.813153,332.182551 114.899091,329.263932 112.886719,326.289062 C110.874347,323.314193 108.64518,317.544011 106.199219,308.978516 L102.1875,284.703125 Z" id="Path-27" fill="#FAF5E5"></path>
            <path d="M439.689453,282.546875 C441.652995,288.186198 439.14388,298.972656 432.162109,314.90625 C425.180339,330.839844 415.674479,339.108724 403.644531,339.712891 C382.320509,340.868775 367.073113,340.868775 357.902344,339.712891 C352.3412,339.011964 345.783086,338.747649 339.132812,336.496094 C336.255108,335.521801 331.859926,333.329744 325.947266,329.919922 C323.25482,326.457374 321.246357,323.831723 319.921875,322.042969 C314.439854,314.639327 310.153028,307.949007 308.400391,303.46875 C306.012585,297.364817 304.020397,286.137604 302.423828,269.787109 C302.702844,264.577899 303.425501,261.249774 304.591797,259.802734 C310.167608,252.884748 319.227012,251.287656 325.947266,249.615234 C329.70338,248.680477 354.46359,243.163076 357.902344,242.898438 C367.730023,242.142121 386.742793,241.632345 403.644531,245.605469 C407.014542,246.397664 414.957268,246.97377 421.146484,249.615234 C423.342699,250.552546 424.35855,252.962963 426.205078,254.048828 C428.27412,255.265544 430.259797,257.183513 432.162109,259.802734 C435.091684,263.108097 436.723845,266.436222 437.058594,269.787109 C437.393342,273.137997 438.270296,277.391252 439.689453,282.546875 Z" id="Path-28" fill="#FAF5E5"></path>
            <path d="M189.222656,292.855469 L220.886719,290.291016 C220.886719,300.361554 220.886719,307.207057 220.886719,310.827525 C220.886719,321.738224 220.886719,327.179579 220.886719,328.548828 C220.886719,330.599609 215.609375,331.529948 205.054688,331.339844 L205.054688,328.548828 L196.34375,328.548828 L196.34375,316.394531 L189.222656,316.394531 L189.222656,292.855469 Z" id="Path-29" fill="#CAE7B9"></path>
            <path d="M217.205078,364.802734 C217.364356,361.69312 218.27907,359.168706 219.949219,357.229492 C221.619368,355.290279 225.052962,352.765865 230.25,349.65625 C233.036243,342.078313 235.186634,336.82636 236.701172,333.900391 C243.27071,321.208554 249.595025,313.082632 254.263672,306.556641 C258.616782,300.471716 262.800776,294.849611 267.458984,291.388672 C268.835828,290.365709 271.038302,289.37222 274.066406,288.408203 C281.184133,289.219457 285.897675,290.212947 288.207031,291.388672 C291.484085,293.057065 293.213465,297.120273 294.619141,298.716797 C297.510697,302.000938 299.622026,308.743777 300.953125,318.945312 L305.146484,364.802734 C303.868092,369.210712 302.470306,371.544697 300.953125,371.804688 C289.839997,373.709082 278.856632,369.817619 274.066406,371.804688 C271.682351,372.793635 253.092539,372.859708 247.693359,375.769531 C242.579471,378.5256 236.765018,385.226121 230.25,395.871094 C230.884404,394.008961 230.884404,392.924326 230.25,392.617188 C225.434214,390.285689 219.06737,390.136303 217.205078,388.507812 C214.974795,386.557529 213.945498,384.309483 214.117188,381.763672 C213.762429,379.716167 213.762429,377.71812 214.117188,375.769531 C214.471946,373.820942 215.501242,370.165343 217.205078,364.802734 Z" id="Path-40" fill="#FAF5E5"></path>
            <path d="M304.736328,292.392578 C312.354818,309.483724 316.611979,318.796224 317.507812,320.330078 C318.403646,321.863932 318.403646,312.551432 317.507812,292.392578 L304.736328,292.392578 Z" id="Path-30" fill="#CAE7B9"></path>
            <path d="M108.640625,240.460937 C135.503472,234.238281 155.460503,231.126953 168.511719,231.126953 C181.562934,231.126953 202.919705,234.238281 232.582031,240.460937 C227.913605,232.251448 223.091991,226.481265 218.117187,223.150391 C214.148924,220.493443 205.542939,217.943807 194.191406,213.417969 C192.271882,212.652658 185.90144,211.612293 175.080078,210.296875 C160.970877,210.960832 151.175304,212.001197 145.693359,213.417969 C140.211415,214.834741 133.428863,218.078881 125.345703,223.150391 L108.640625,240.460937 Z" id="Path-32" fill="#1F2226"></path>
            <path d="M316.650391,245.802734 C315.975259,231.880802 316.973957,223.001896 319.646484,219.166016 C322.319012,215.330135 328.268231,212.972713 337.494141,212.09375 C351.998552,209.581405 363.040218,207.962915 370.619141,207.238281 C378.198063,206.513648 384.084131,206.513648 388.277344,207.238281 C402.716146,220.856771 411.693359,229.46224 415.208984,233.054688 C418.724609,236.647135 420.557943,239.856771 420.708984,242.683594 C410.038198,237.273578 401.855907,234.063943 396.162109,233.054688 C390.468312,232.045432 380.543182,232.045432 366.386719,233.054688 L339.486604,238.2139 L316.650391,245.802734 Z" id="Path-33" fill="#1F2226"></path>
            <path d="M231.691406,388.28125 C232.493172,385.938535 234.031584,384.978249 236.306641,385.400391 C238.581698,385.822532 246.506177,388.538678 260.080078,393.548828 L231.691406,388.28125 Z" id="Path-38" fill="#1F2226"></path>
            <path d="M321.486328,387.175781 C318.756434,384.466653 316.174403,383.277851 313.740234,383.609375 C311.306066,383.940899 307.171952,386.044415 301.337891,389.919922 C306.541501,388.215722 310.675616,387.154928 313.740234,386.737539 C316.804853,386.320149 319.386884,386.46623 321.486328,387.175781 Z" id="Path-39" fill="#1F2226"></path>
            <path d="M135.578125,497.201172 L141.171875,562.486328 L109.373047,593.666016 C100.51237,616.035807 102.664714,640.174479 115.830078,666.082031 C135.578125,704.943359 230.078125,699.300781 261.552734,693.052734 C282.535807,688.88737 289.626302,655.758464 282.824219,593.666016 C263.904962,592.794806 249.90366,590.919155 240.820312,588.039062 C222.449169,582.214053 204.541682,572.401747 188.216797,556.283203 C159.784505,528.210286 142.238281,508.516276 135.578125,497.201172 Z" id="Path-44" fill="#FAF5E5"></path>
            <path d="M281.857422,591.634766 C260.873047,654.624349 239.608073,686.561198 218.0625,687.445312 C185.744141,688.771484 135.109375,684.859375 126.351562,675.720703 C117.59375,666.582031 154.605469,725.845703 263.324219,700.783203 C335.803385,684.07487 373.507812,656.459635 376.4375,617.9375 C372.66276,565.677083 371.033203,538.760417 371.548828,537.1875 C372.322266,534.828125 330.171875,584.625 318.03125,586.800781 C309.9375,588.251302 297.879557,589.86263 281.857422,591.634766 Z" id="Path-45" fill="#C4AEAE"></path>
            <path d="M374.498047,576.441406 L555.917969,627.867188 L555.917969,711.064453 L142.785156,708.693359 C126.497396,703.680339 118.15625,696.022135 117.761719,685.71875 C117.367187,675.415365 118.383464,671.26888 120.810547,673.279297 C249.892578,671.985677 325.980469,660.019531 349.074219,637.380859 C372.167969,614.742188 380.642578,594.429036 374.498047,576.441406 Z" id="Path-46" fill="#A2C499"></path>
            <path d="M119.173828,582.980469 C99.2011719,620.06901 101.521484,648.889323 126.134766,669.441406 C150.748047,689.99349 156.75,703.139323 144.140625,708.878906 L0.705078125,708.878906 L0.705078125,638.402344 L119.173828,582.980469 Z" id="Path-47" fill="#CAE7B9"></path>
        </g>
    </g>
</svg>